<?xml version="1.0" encoding="UTF-8"?>
<svg id="uuid-5127fa35-54e9-4c57-9055-85d705cb77a7" data-name="Layer 1" xmlns="http://www.w3.org/2000/svg" width="921.077" height="564.177" viewBox="0 0 921.077 564.177">
  <defs>
    <style>
      .uuid-d669b00a-2c3b-404b-9cf7-e06e60cd352b {
        stroke-miterlimit: 40;
        stroke-width: 1px;
      }

      .uuid-d669b00a-2c3b-404b-9cf7-e06e60cd352b, .uuid-688e41bb-a065-4eff-a8c7-7e10c4d2e85b, .uuid-85d39cda-f6f9-4baf-bef3-04e588b9ac04, .uuid-f5d5e043-383c-4140-bc1e-076779b3b341, .uuid-e55e4a14-d413-4950-afdc-cf9eeb4d1252, .uuid-e5cda36d-6cee-46be-b8fd-ddd5f0dd3736, .uuid-2817c781-ca0c-4d61-8b31-6eaf1d4c8865, .uuid-209859b8-fc19-4f82-bdee-e0a9fb9ba67f, .uuid-9761906b-149a-47ca-9332-d996a0e75877, .uuid-2bf27d2c-8052-4c9b-bf80-9c210775bd26, .uuid-ce80e62e-a9c0-4b0a-8690-6bc0e00e81e4, .uuid-85e34568-3428-4967-bc7e-18d3ef6030e9, .uuid-36f25a5e-242c-4a54-8d9f-bb8f493e18ec {
        fill: #5fb4ff;
        stroke: #000;
      }

      .uuid-688e41bb-a065-4eff-a8c7-7e10c4d2e85b {
        stroke-miterlimit: 40;
        stroke-width: 1px;
      }

      .uuid-85d39cda-f6f9-4baf-bef3-04e588b9ac04 {
        stroke-miterlimit: 40;
        stroke-width: 1px;
      }

      .uuid-f5d5e043-383c-4140-bc1e-076779b3b341 {
        stroke-miterlimit: 40;
        stroke-width: 1px;
      }

      .uuid-e55e4a14-d413-4950-afdc-cf9eeb4d1252 {
        stroke-miterlimit: 40;
        stroke-width: 1px;
      }

      .uuid-e5cda36d-6cee-46be-b8fd-ddd5f0dd3736 {
        stroke-miterlimit: 40;
        stroke-width: 1px;
      }

      .uuid-2817c781-ca0c-4d61-8b31-6eaf1d4c8865 {
        stroke-miterlimit: 40;
        stroke-width: 1px;
      }

      .uuid-209859b8-fc19-4f82-bdee-e0a9fb9ba67f {
        stroke-miterlimit: 40;
        stroke-width: 1px;
      }

      .uuid-9761906b-149a-47ca-9332-d996a0e75877 {
        stroke-miterlimit: 40;
        stroke-width: 1px;
      }

      .uuid-2bf27d2c-8052-4c9b-bf80-9c210775bd26 {
        stroke-miterlimit: 40;
        stroke-width: 1px;
      }

      .uuid-ce80e62e-a9c0-4b0a-8690-6bc0e00e81e4 {
        stroke-miterlimit: 40;
        stroke-width: 1px;
      }

      .uuid-85e34568-3428-4967-bc7e-18d3ef6030e9 {
        stroke-miterlimit: 40;
        stroke-width: 1px;
      }

      .uuid-36f25a5e-242c-4a54-8d9f-bb8f493e18ec {
        stroke-miterlimit: 40;
        stroke-width: 1px;
      }
    </style>
  </defs>
  <polygon class="uuid-85e34568-3428-4967-bc7e-18d3ef6030e9" points="270.5 546.279 255.5 554.939 260.5 563.6 280.5 563.6 285.5 554.939 300.5 563.6 315.5 554.939 310.5 546.279 300.5 546.279 300.5 528.959 285.5 520.298 280.5 528.959 270.5 528.959 270.5 546.279"/>
  <polygon class="uuid-85e34568-3428-4967-bc7e-18d3ef6030e9" points="240.5 494.317 225.5 502.978 230.5 511.638 250.5 511.638 255.5 502.978 270.5 511.638 285.5 502.978 280.5 494.317 270.5 494.317 270.5 476.997 255.5 468.337 250.5 476.997 240.5 476.997 240.5 494.317"/>
  <polygon class="uuid-ce80e62e-a9c0-4b0a-8690-6bc0e00e81e4" points="240.5 528.959 240.5 511.638 230.5 511.638 220.5 528.959 225.5 537.619 210.5 546.279 210.5 563.6 220.5 563.6 225.5 554.939 240.5 563.6 255.5 554.939 250.5 546.279 255.5 537.619 240.5 528.959"/>
  <polygon class="uuid-ce80e62e-a9c0-4b0a-8690-6bc0e00e81e4" points="270.5 511.638 285.5 502.978 290.5 511.638 280.5 528.959 270.5 528.959 270.5 546.279 255.5 554.939 250.5 546.279 255.5 537.619 240.5 528.959 240.5 511.638 250.5 511.638 255.5 502.978 270.5 511.638"/>
  <polygon class="uuid-9761906b-149a-47ca-9332-d996a0e75877" points="300.5 494.317 315.5 502.978 320.5 494.317 310.5 476.997 300.5 476.997 300.5 459.676 285.5 451.016 280.5 459.676 285.5 468.337 270.5 476.997 270.5 494.317 280.5 494.317 285.5 502.978 300.5 494.317"/>
  <polygon class="uuid-ce80e62e-a9c0-4b0a-8690-6bc0e00e81e4" points="300.5 528.959 300.5 546.279 310.5 546.279 320.5 528.959 315.5 520.298 330.5 511.638 330.5 494.317 320.5 494.317 315.5 502.978 300.5 494.317 285.5 502.978 290.5 511.638 285.5 520.298 300.5 528.959"/>
  <polygon class="uuid-ce80e62e-a9c0-4b0a-8690-6bc0e00e81e4" points="210.5 511.638 210.5 528.959 220.5 528.959 230.5 511.638 225.5 502.978 240.5 494.317 240.5 476.997 230.5 476.997 225.5 485.657 210.5 476.997 195.5 485.657 200.5 494.317 195.5 502.978 210.5 511.638"/>
  <polygon class="uuid-e55e4a14-d413-4950-afdc-cf9eeb4d1252" points="180.5 528.959 165.5 537.619 170.5 546.279 190.5 546.279 195.5 537.619 210.5 546.279 225.5 537.619 220.5 528.959 210.5 528.959 210.5 511.638 195.5 502.978 190.5 511.638 180.5 511.638 180.5 528.959"/>
  <polygon class="uuid-d669b00a-2c3b-404b-9cf7-e06e60cd352b" points="390.5 546.279 390.5 563.6 400.5 563.6 410.5 546.279 405.5 537.619 420.5 528.959 420.5 511.638 410.5 511.638 405.5 520.298 390.5 511.638 375.5 520.298 380.5 528.959 375.5 537.619 390.5 546.279"/>
  <polygon class="uuid-d669b00a-2c3b-404b-9cf7-e06e60cd352b" points="330.5 546.279 330.5 563.6 340.5 563.6 350.5 546.279 345.5 537.619 360.5 528.959 360.5 511.638 350.5 511.638 345.5 520.298 330.5 511.638 315.5 520.298 320.5 528.959 315.5 537.619 330.5 546.279"/>
  <polygon class="uuid-d669b00a-2c3b-404b-9cf7-e06e60cd352b" points="360.5 528.959 360.5 511.638 370.5 511.638 380.5 528.959 375.5 537.619 390.5 546.279 390.5 563.6 380.5 563.6 375.5 554.939 360.5 563.6 345.5 554.939 350.5 546.279 345.5 537.619 360.5 528.959"/>
  <polygon class="uuid-85e34568-3428-4967-bc7e-18d3ef6030e9" points="360.5 494.317 375.5 485.657 370.5 476.997 350.5 476.997 345.5 485.657 330.5 476.997 315.5 485.657 320.5 494.317 330.5 494.317 330.5 511.638 345.5 520.298 350.5 511.638 360.5 511.638 360.5 494.317"/>
  <polygon class="uuid-d669b00a-2c3b-404b-9cf7-e06e60cd352b" points="390.5 511.638 405.5 520.298 410.5 511.638 400.5 494.317 390.5 494.317 390.5 476.997 375.5 468.337 370.5 476.997 375.5 485.657 360.5 494.317 360.5 511.638 370.5 511.638 375.5 520.298 390.5 511.638"/>
  <polygon class="uuid-85d39cda-f6f9-4baf-bef3-04e588b9ac04" points="360.5 425.035 375.5 433.696 380.5 425.035 370.5 407.715 360.5 407.715 360.5 390.394 345.5 381.734 340.5 390.394 345.5 399.055 330.5 407.715 330.5 425.035 340.5 425.035 345.5 433.696 360.5 425.035"/>
  <polygon class="uuid-85d39cda-f6f9-4baf-bef3-04e588b9ac04" points="330.5 476.997 345.5 485.657 350.5 476.997 340.5 459.676 330.5 459.676 330.5 442.356 315.5 433.696 310.5 442.356 315.5 451.016 300.5 459.676 300.5 476.997 310.5 476.997 315.5 485.657 330.5 476.997"/>
  <polygon class="uuid-e55e4a14-d413-4950-afdc-cf9eeb4d1252" points="360.5 459.676 345.5 468.337 350.5 476.997 370.5 476.997 375.5 468.337 390.5 476.997 405.5 468.337 400.5 459.676 390.5 459.676 390.5 442.356 375.5 433.696 370.5 442.356 360.5 442.356 360.5 459.676"/>
  <polygon class="uuid-e55e4a14-d413-4950-afdc-cf9eeb4d1252" points="330.5 442.356 315.5 433.696 320.5 425.035 340.5 425.035 345.5 433.696 360.5 425.035 375.5 433.696 370.5 442.356 360.5 442.356 360.5 459.676 345.5 468.337 340.5 459.676 330.5 459.676 330.5 442.356"/>
  <polygon class="uuid-ce80e62e-a9c0-4b0a-8690-6bc0e00e81e4" points="300.5 425.035 300.5 407.715 290.5 407.715 280.5 425.035 285.5 433.696 270.5 442.356 270.5 459.676 280.5 459.676 285.5 451.016 300.5 459.676 315.5 451.016 310.5 442.356 315.5 433.696 300.5 425.035"/>
  <polygon class="uuid-e55e4a14-d413-4950-afdc-cf9eeb4d1252" points="330.5 407.715 345.5 399.055 340.5 390.394 320.5 390.394 315.5 399.055 300.5 390.394 285.5 399.055 290.5 407.715 300.5 407.715 300.5 425.035 315.5 433.696 320.5 425.035 330.5 425.035 330.5 407.715"/>
  <polygon class="uuid-ce80e62e-a9c0-4b0a-8690-6bc0e00e81e4" points="540.5 390.394 540.5 407.715 550.5 407.715 560.5 390.394 555.5 381.734 570.5 373.074 570.5 355.753 560.5 355.753 555.5 364.414 540.5 355.753 525.5 364.414 530.5 373.074 525.5 381.734 540.5 390.394"/>
  <polygon class="uuid-ce80e62e-a9c0-4b0a-8690-6bc0e00e81e4" points="480.5 390.394 480.5 407.715 490.5 407.715 500.5 390.394 495.5 381.734 510.5 373.074 510.5 355.753 500.5 355.753 495.5 364.414 480.5 355.753 465.5 364.414 470.5 373.074 465.5 381.734 480.5 390.394"/>
  <polygon class="uuid-ce80e62e-a9c0-4b0a-8690-6bc0e00e81e4" points="510.5 407.715 495.5 399.055 490.5 407.715 500.5 425.035 510.5 425.035 510.5 442.356 525.5 451.016 530.5 442.356 525.5 433.696 540.5 425.035 540.5 407.715 530.5 407.715 525.5 399.055 510.5 407.715"/>
  <polygon class="uuid-ce80e62e-a9c0-4b0a-8690-6bc0e00e81e4" points="510.5 373.074 510.5 355.753 520.5 355.753 530.5 373.074 525.5 381.734 540.5 390.394 540.5 407.715 530.5 407.715 525.5 399.055 510.5 407.715 495.5 399.055 500.5 390.394 495.5 381.734 510.5 373.074"/>
  <polygon class="uuid-ce80e62e-a9c0-4b0a-8690-6bc0e00e81e4" points="450.5 373.074 450.5 390.394 460.5 390.394 470.5 373.074 465.5 364.414 480.5 355.753 480.5 338.433 470.5 338.433 465.5 347.093 450.5 338.433 435.5 347.093 440.5 355.753 435.5 364.414 450.5 373.074"/>
  <polygon class="uuid-ce80e62e-a9c0-4b0a-8690-6bc0e00e81e4" points="390.5 373.074 390.5 390.394 400.5 390.394 410.5 373.074 405.5 364.414 420.5 355.753 420.5 338.433 410.5 338.433 405.5 347.093 390.5 338.433 375.5 347.093 380.5 355.753 375.5 364.414 390.5 373.074"/>
  <polygon class="uuid-ce80e62e-a9c0-4b0a-8690-6bc0e00e81e4" points="420.5 390.394 405.5 381.734 400.5 390.394 410.5 407.715 420.5 407.715 420.5 425.035 435.5 433.696 440.5 425.035 435.5 416.375 450.5 407.715 450.5 390.394 440.5 390.394 435.5 381.734 420.5 390.394"/>
  <polygon class="uuid-ce80e62e-a9c0-4b0a-8690-6bc0e00e81e4" points="420.5 355.753 420.5 338.433 430.5 338.433 440.5 355.753 435.5 364.414 450.5 373.074 450.5 390.394 440.5 390.394 435.5 381.734 420.5 390.394 405.5 381.734 410.5 373.074 405.5 364.414 420.5 355.753"/>
  <polygon class="uuid-f5d5e043-383c-4140-bc1e-076779b3b341" points="450.5 476.997 435.5 468.337 430.5 476.997 440.5 494.317 450.5 494.317 450.5 511.638 465.5 520.298 470.5 511.638 465.5 502.978 480.5 494.317 480.5 476.997 470.5 476.997 465.5 468.337 450.5 476.997"/>
  <polygon class="uuid-f5d5e043-383c-4140-bc1e-076779b3b341" points="480.5 425.035 465.5 416.375 460.5 425.035 470.5 442.356 480.5 442.356 480.5 459.676 495.5 468.337 500.5 459.676 495.5 451.016 510.5 442.356 510.5 425.035 500.5 425.035 495.5 416.375 480.5 425.035"/>
  <polygon class="uuid-f5d5e043-383c-4140-bc1e-076779b3b341" points="450.5 442.356 465.5 433.696 460.5 425.035 440.5 425.035 435.5 433.696 420.5 425.035 405.5 433.696 410.5 442.356 420.5 442.356 420.5 459.676 435.5 468.337 440.5 459.676 450.5 459.676 450.5 442.356"/>
  <polygon class="uuid-f5d5e043-383c-4140-bc1e-076779b3b341" points="480.5 459.676 495.5 468.337 490.5 476.997 470.5 476.997 465.5 468.337 450.5 476.997 435.5 468.337 440.5 459.676 450.5 459.676 450.5 442.356 465.5 433.696 470.5 442.356 480.5 442.356 480.5 459.676"/>
  <polygon class="uuid-209859b8-fc19-4f82-bdee-e0a9fb9ba67f" points="450.5 407.715 435.5 416.375 440.5 425.035 460.5 425.035 465.5 416.375 480.5 425.035 495.5 416.375 490.5 407.715 480.5 407.715 480.5 390.394 465.5 381.734 460.5 390.394 450.5 390.394 450.5 407.715"/>
  <polygon class="uuid-ce80e62e-a9c0-4b0a-8690-6bc0e00e81e4" points="510.5 476.997 510.5 494.317 520.5 494.317 530.5 476.997 525.5 468.337 540.5 459.676 540.5 442.356 530.5 442.356 525.5 451.016 510.5 442.356 495.5 451.016 500.5 459.676 495.5 468.337 510.5 476.997"/>
  <polygon class="uuid-f5d5e043-383c-4140-bc1e-076779b3b341" points="480.5 494.317 465.5 502.978 470.5 511.638 490.5 511.638 495.5 502.978 510.5 511.638 525.5 502.978 520.5 494.317 510.5 494.317 510.5 476.997 495.5 468.337 490.5 476.997 480.5 476.997 480.5 494.317"/>
  <polygon class="uuid-ce80e62e-a9c0-4b0a-8690-6bc0e00e81e4" points="570.5 407.715 570.5 425.035 580.5 425.035 590.5 407.715 585.5 399.055 600.5 390.394 600.5 373.074 590.5 373.074 585.5 381.734 570.5 373.074 555.5 381.734 560.5 390.394 555.5 399.055 570.5 407.715"/>
  <polygon class="uuid-f5d5e043-383c-4140-bc1e-076779b3b341" points="540.5 425.035 525.5 433.696 530.5 442.356 550.5 442.356 555.5 433.696 570.5 442.356 585.5 433.696 580.5 425.035 570.5 425.035 570.5 407.715 555.5 399.055 550.5 407.715 540.5 407.715 540.5 425.035"/>
  <polygon class="uuid-209859b8-fc19-4f82-bdee-e0a9fb9ba67f" points="510.5 338.433 525.5 329.773 520.5 321.112 500.5 321.112 495.5 329.773 480.5 321.112 465.5 329.773 470.5 338.433 480.5 338.433 480.5 355.753 495.5 364.414 500.5 355.753 510.5 355.753 510.5 338.433"/>
  <polygon class="uuid-ce80e62e-a9c0-4b0a-8690-6bc0e00e81e4" points="540.5 355.753 555.5 364.414 560.5 355.753 550.5 338.433 540.5 338.433 540.5 321.112 525.5 312.452 520.5 321.112 525.5 329.773 510.5 338.433 510.5 355.753 520.5 355.753 525.5 364.414 540.5 355.753"/>
  <polygon class="uuid-209859b8-fc19-4f82-bdee-e0a9fb9ba67f" points="420.5 321.112 435.5 312.452 430.5 303.792 410.5 303.792 405.5 312.452 390.5 303.792 375.5 312.452 380.5 321.112 390.5 321.112 390.5 338.433 405.5 347.093 410.5 338.433 420.5 338.433 420.5 321.112"/>
  <polygon class="uuid-ce80e62e-a9c0-4b0a-8690-6bc0e00e81e4" points="450.5 338.433 465.5 347.093 470.5 338.433 460.5 321.112 450.5 321.112 450.5 303.792 435.5 295.132 430.5 303.792 435.5 312.452 420.5 321.112 420.5 338.433 430.5 338.433 435.5 347.093 450.5 338.433"/>
  <polygon class="uuid-ce80e62e-a9c0-4b0a-8690-6bc0e00e81e4" points="390.5 407.715 405.5 416.375 410.5 407.715 400.5 390.394 390.5 390.394 390.5 373.074 375.5 364.414 370.5 373.074 375.5 381.734 360.5 390.394 360.5 407.715 370.5 407.715 375.5 416.375 390.5 407.715"/>
  <polygon class="uuid-f5d5e043-383c-4140-bc1e-076779b3b341" points="390.5 442.356 390.5 459.676 400.5 459.676 410.5 442.356 405.5 433.696 420.5 425.035 420.5 407.715 410.5 407.715 405.5 416.375 390.5 407.715 375.5 416.375 380.5 425.035 375.5 433.696 390.5 442.356"/>
  <polygon class="uuid-ce80e62e-a9c0-4b0a-8690-6bc0e00e81e4" points="420.5 494.317 405.5 485.657 400.5 494.317 410.5 511.638 420.5 511.638 420.5 528.959 435.5 537.619 440.5 528.959 435.5 520.298 450.5 511.638 450.5 494.317 440.5 494.317 435.5 485.657 420.5 494.317"/>
  <polygon class="uuid-f5d5e043-383c-4140-bc1e-076779b3b341" points="420.5 459.676 420.5 442.356 410.5 442.356 400.5 459.676 405.5 468.337 390.5 476.997 390.5 494.317 400.5 494.317 405.5 485.657 420.5 494.317 435.5 485.657 430.5 476.997 435.5 468.337 420.5 459.676"/>
  <polygon class="uuid-209859b8-fc19-4f82-bdee-e0a9fb9ba67f" points="570.5 546.279 555.5 554.939 560.5 563.6 580.5 563.6 585.5 554.939 600.5 563.6 615.5 554.939 610.5 546.279 600.5 546.279 600.5 528.959 585.5 520.298 580.5 528.959 570.5 528.959 570.5 546.279"/>
  <polygon class="uuid-85e34568-3428-4967-bc7e-18d3ef6030e9" points="570.5 511.638 555.5 520.298 560.5 528.959 580.5 528.959 585.5 520.298 600.5 528.959 615.5 520.298 610.5 511.638 600.5 511.638 600.5 494.317 585.5 485.657 580.5 494.317 570.5 494.317 570.5 511.638"/>
  <polygon class="uuid-85e34568-3428-4967-bc7e-18d3ef6030e9" points="540.5 459.676 525.5 468.337 530.5 476.997 550.5 476.997 555.5 468.337 570.5 476.997 585.5 468.337 580.5 459.676 570.5 459.676 570.5 442.356 555.5 433.696 550.5 442.356 540.5 442.356 540.5 459.676"/>
  <polygon class="uuid-ce80e62e-a9c0-4b0a-8690-6bc0e00e81e4" points="540.5 494.317 540.5 476.997 530.5 476.997 520.5 494.317 525.5 502.978 510.5 511.638 510.5 528.959 520.5 528.959 525.5 520.298 540.5 528.959 555.5 520.298 550.5 511.638 555.5 502.978 540.5 494.317"/>
  <polygon class="uuid-ce80e62e-a9c0-4b0a-8690-6bc0e00e81e4" points="570.5 476.997 585.5 468.337 590.5 476.997 580.5 494.317 570.5 494.317 570.5 511.638 555.5 520.298 550.5 511.638 555.5 502.978 540.5 494.317 540.5 476.997 550.5 476.997 555.5 468.337 570.5 476.997"/>
  <polygon class="uuid-9761906b-149a-47ca-9332-d996a0e75877" points="600.5 459.676 615.5 468.337 620.5 459.676 610.5 442.356 600.5 442.356 600.5 425.035 585.5 416.375 580.5 425.035 585.5 433.696 570.5 442.356 570.5 459.676 580.5 459.676 585.5 468.337 600.5 459.676"/>
  <polygon class="uuid-ce80e62e-a9c0-4b0a-8690-6bc0e00e81e4" points="600.5 494.317 600.5 511.638 610.5 511.638 620.5 494.317 615.5 485.657 630.5 476.997 630.5 459.676 620.5 459.676 615.5 468.337 600.5 459.676 585.5 468.337 590.5 476.997 585.5 485.657 600.5 494.317"/>
  <polygon class="uuid-ce80e62e-a9c0-4b0a-8690-6bc0e00e81e4" points="660.5 425.035 660.5 442.356 670.5 442.356 680.5 425.035 675.5 416.375 690.5 407.715 690.5 390.394 680.5 390.394 675.5 399.055 660.5 390.394 645.5 399.055 650.5 407.715 645.5 416.375 660.5 425.035"/>
  <polygon class="uuid-ce80e62e-a9c0-4b0a-8690-6bc0e00e81e4" points="600.5 425.035 600.5 442.356 610.5 442.356 620.5 425.035 615.5 416.375 630.5 407.715 630.5 390.394 620.5 390.394 615.5 399.055 600.5 390.394 585.5 399.055 590.5 407.715 585.5 416.375 600.5 425.035"/>
  <polygon class="uuid-ce80e62e-a9c0-4b0a-8690-6bc0e00e81e4" points="630.5 442.356 615.5 433.696 610.5 442.356 620.5 459.676 630.5 459.676 630.5 476.997 645.5 485.657 650.5 476.997 645.5 468.337 660.5 459.676 660.5 442.356 650.5 442.356 645.5 433.696 630.5 442.356"/>
  <polygon class="uuid-ce80e62e-a9c0-4b0a-8690-6bc0e00e81e4" points="630.5 407.715 630.5 390.394 640.5 390.394 650.5 407.715 645.5 416.375 660.5 425.035 660.5 442.356 650.5 442.356 645.5 433.696 630.5 442.356 615.5 433.696 620.5 425.035 615.5 416.375 630.5 407.715"/>
  <polygon class="uuid-e5cda36d-6cee-46be-b8fd-ddd5f0dd3736" points="690.5 442.356 690.5 459.676 700.5 459.676 710.5 442.356 705.5 433.696 720.5 425.035 720.5 407.715 710.5 407.715 705.5 416.375 690.5 407.715 675.5 416.375 680.5 425.035 675.5 433.696 690.5 442.356"/>
  <polygon class="uuid-209859b8-fc19-4f82-bdee-e0a9fb9ba67f" points="660.5 459.676 645.5 468.337 650.5 476.997 670.5 476.997 675.5 468.337 690.5 476.997 705.5 468.337 700.5 459.676 690.5 459.676 690.5 442.356 675.5 433.696 670.5 442.356 660.5 442.356 660.5 459.676"/>
  <polygon class="uuid-209859b8-fc19-4f82-bdee-e0a9fb9ba67f" points="630.5 373.074 645.5 364.414 640.5 355.753 620.5 355.753 615.5 364.414 600.5 355.753 585.5 364.414 590.5 373.074 600.5 373.074 600.5 390.394 615.5 399.055 620.5 390.394 630.5 390.394 630.5 373.074"/>
  <polygon class="uuid-ce80e62e-a9c0-4b0a-8690-6bc0e00e81e4" points="660.5 390.394 675.5 399.055 680.5 390.394 670.5 373.074 660.5 373.074 660.5 355.753 645.5 347.093 640.5 355.753 645.5 364.414 630.5 373.074 630.5 390.394 640.5 390.394 645.5 399.055 660.5 390.394"/>
  <polygon class="uuid-ce80e62e-a9c0-4b0a-8690-6bc0e00e81e4" points="540.5 251.83 555.5 260.491 560.5 251.83 550.5 234.51 540.5 234.51 540.5 217.189 525.5 208.529 520.5 217.189 525.5 225.85 510.5 234.51 510.5 251.83 520.5 251.83 525.5 260.491 540.5 251.83"/>
  <polygon class="uuid-f5d5e043-383c-4140-bc1e-076779b3b341" points="540.5 286.471 540.5 303.792 550.5 303.792 560.5 286.471 555.5 277.811 570.5 269.151 570.5 251.83 560.5 251.83 555.5 260.491 540.5 251.83 525.5 260.491 530.5 269.151 525.5 277.811 540.5 286.471"/>
  <polygon class="uuid-f5d5e043-383c-4140-bc1e-076779b3b341" points="510.5 269.151 525.5 277.811 530.5 269.151 520.5 251.83 510.5 251.83 510.5 234.51 495.5 225.85 490.5 234.51 495.5 243.17 480.5 251.83 480.5 269.151 490.5 269.151 495.5 277.811 510.5 269.151"/>
  <polygon class="uuid-f5d5e043-383c-4140-bc1e-076779b3b341" points="480.5 321.112 495.5 329.773 500.5 321.112 490.5 303.792 480.5 303.792 480.5 286.471 465.5 277.811 460.5 286.471 465.5 295.132 450.5 303.792 450.5 321.112 460.5 321.112 465.5 329.773 480.5 321.112"/>
  <polygon class="uuid-f5d5e043-383c-4140-bc1e-076779b3b341" points="510.5 303.792 495.5 312.452 500.5 321.112 520.5 321.112 525.5 312.452 540.5 321.112 555.5 312.452 550.5 303.792 540.5 303.792 540.5 286.471 525.5 277.811 520.5 286.471 510.5 286.471 510.5 303.792"/>
  <polygon class="uuid-f5d5e043-383c-4140-bc1e-076779b3b341" points="480.5 286.471 465.5 277.811 470.5 269.151 490.5 269.151 495.5 277.811 510.5 269.151 525.5 277.811 520.5 286.471 510.5 286.471 510.5 303.792 495.5 312.452 490.5 303.792 480.5 303.792 480.5 286.471"/>
  <polygon class="uuid-ce80e62e-a9c0-4b0a-8690-6bc0e00e81e4" points="450.5 269.151 450.5 251.83 440.5 251.83 430.5 269.151 435.5 277.811 420.5 286.471 420.5 303.792 430.5 303.792 435.5 295.132 450.5 303.792 465.5 295.132 460.5 286.471 465.5 277.811 450.5 269.151"/>
  <polygon class="uuid-f5d5e043-383c-4140-bc1e-076779b3b341" points="480.5 251.83 495.5 243.17 490.5 234.51 470.5 234.51 465.5 243.17 450.5 234.51 435.5 243.17 440.5 251.83 450.5 251.83 450.5 269.151 465.5 277.811 470.5 269.151 480.5 269.151 480.5 251.83"/>
  <polygon class="uuid-f5d5e043-383c-4140-bc1e-076779b3b341" points="390.5 234.51 405.5 225.85 400.5 217.189 380.5 217.189 375.5 225.85 360.5 217.189 345.5 225.85 350.5 234.51 360.5 234.51 360.5 251.83 375.5 260.491 380.5 251.83 390.5 251.83 390.5 234.51"/>
  <polygon class="uuid-f5d5e043-383c-4140-bc1e-076779b3b341" points="420.5 286.471 435.5 277.811 430.5 269.151 410.5 269.151 405.5 277.811 390.5 269.151 375.5 277.811 380.5 286.471 390.5 286.471 390.5 303.792 405.5 312.452 410.5 303.792 420.5 303.792 420.5 286.471"/>
  <polygon class="uuid-f5d5e043-383c-4140-bc1e-076779b3b341" points="420.5 251.83 420.5 269.151 430.5 269.151 440.5 251.83 435.5 243.17 450.5 234.51 450.5 217.189 440.5 217.189 435.5 225.85 420.5 217.189 405.5 225.85 410.5 234.51 405.5 243.17 420.5 251.83"/>
  <polygon class="uuid-f5d5e043-383c-4140-bc1e-076779b3b341" points="390.5 269.151 375.5 277.811 370.5 269.151 380.5 251.83 390.5 251.83 390.5 234.51 405.5 225.85 410.5 234.51 405.5 243.17 420.5 251.83 420.5 269.151 410.5 269.151 405.5 277.811 390.5 269.151"/>
  <polygon class="uuid-209859b8-fc19-4f82-bdee-e0a9fb9ba67f" points="390.5 199.869 405.5 191.209 400.5 182.548 380.5 182.548 375.5 191.209 360.5 182.548 345.5 191.209 350.5 199.869 360.5 199.869 360.5 217.189 375.5 225.85 380.5 217.189 390.5 217.189 390.5 199.869"/>
  <polygon class="uuid-ce80e62e-a9c0-4b0a-8690-6bc0e00e81e4" points="420.5 217.189 435.5 225.85 440.5 217.189 430.5 199.869 420.5 199.869 420.5 182.548 405.5 173.888 400.5 182.548 405.5 191.209 390.5 199.869 390.5 217.189 400.5 217.189 405.5 225.85 420.5 217.189"/>
  <polygon class="uuid-ce80e62e-a9c0-4b0a-8690-6bc0e00e81e4" points="360.5 286.471 345.5 277.811 340.5 286.471 350.5 303.792 360.5 303.792 360.5 321.112 375.5 329.773 380.5 321.112 375.5 312.452 390.5 303.792 390.5 286.471 380.5 286.471 375.5 277.811 360.5 286.471"/>
  <polygon class="uuid-f5d5e043-383c-4140-bc1e-076779b3b341" points="360.5 251.83 360.5 234.51 350.5 234.51 340.5 251.83 345.5 260.491 330.5 269.151 330.5 286.471 340.5 286.471 345.5 277.811 360.5 286.471 375.5 277.811 370.5 269.151 375.5 260.491 360.5 251.83"/>
  <polygon class="uuid-2bf27d2c-8052-4c9b-bf80-9c210775bd26" points="210.5 303.792 210.5 321.112 220.5 321.112 230.5 303.792 225.5 295.132 240.5 286.471 240.5 269.151 230.5 269.151 225.5 277.811 210.5 269.151 195.5 277.811 200.5 286.471 195.5 295.132 210.5 303.792"/>
  <polygon class="uuid-2bf27d2c-8052-4c9b-bf80-9c210775bd26" points="150.5 303.792 150.5 321.112 160.5 321.112 170.5 303.792 165.5 295.132 180.5 286.471 180.5 269.151 170.5 269.151 165.5 277.811 150.5 269.151 135.5 277.811 140.5 286.471 135.5 295.132 150.5 303.792"/>
  <polygon class="uuid-2bf27d2c-8052-4c9b-bf80-9c210775bd26" points="180.5 321.112 165.5 312.452 160.5 321.112 170.5 338.433 180.5 338.433 180.5 355.753 195.5 364.414 200.5 355.753 195.5 347.093 210.5 338.433 210.5 321.112 200.5 321.112 195.5 312.452 180.5 321.112"/>
  <polygon class="uuid-2bf27d2c-8052-4c9b-bf80-9c210775bd26" points="180.5 286.471 180.5 269.151 190.5 269.151 200.5 286.471 195.5 295.132 210.5 303.792 210.5 321.112 200.5 321.112 195.5 312.452 180.5 321.112 165.5 312.452 170.5 303.792 165.5 295.132 180.5 286.471"/>
  <polygon class="uuid-2bf27d2c-8052-4c9b-bf80-9c210775bd26" points="120.5 286.471 120.5 303.792 130.5 303.792 140.5 286.471 135.5 277.811 150.5 269.151 150.5 251.83 140.5 251.83 135.5 260.491 120.5 251.83 105.5 260.491 110.5 269.151 105.5 277.811 120.5 286.471"/>
  <polygon class="uuid-2bf27d2c-8052-4c9b-bf80-9c210775bd26" points="60.5 286.471 60.5 303.792 70.5 303.792 80.5 286.471 75.5 277.811 90.5 269.151 90.5 251.83 80.5 251.83 75.5 260.491 60.5 251.83 45.5 260.491 50.5 269.151 45.5 277.811 60.5 286.471"/>
  <polygon class="uuid-2bf27d2c-8052-4c9b-bf80-9c210775bd26" points="90.5 303.792 75.5 295.132 70.5 303.792 80.5 321.112 90.5 321.112 90.5 338.433 105.5 347.093 110.5 338.433 105.5 329.773 120.5 321.112 120.5 303.792 110.5 303.792 105.5 295.132 90.5 303.792"/>
  <polygon class="uuid-2bf27d2c-8052-4c9b-bf80-9c210775bd26" points="90.5 269.151 90.5 251.83 100.5 251.83 110.5 269.151 105.5 277.811 120.5 286.471 120.5 303.792 110.5 303.792 105.5 295.132 90.5 303.792 75.5 295.132 80.5 286.471 75.5 277.811 90.5 269.151"/>
  <polygon class="uuid-85e34568-3428-4967-bc7e-18d3ef6030e9" points="120.5 390.394 105.5 381.734 100.5 390.394 110.5 407.715 120.5 407.715 120.5 425.035 135.5 433.696 140.5 425.035 135.5 416.375 150.5 407.715 150.5 390.394 140.5 390.394 135.5 381.734 120.5 390.394"/>
  <polygon class="uuid-85e34568-3428-4967-bc7e-18d3ef6030e9" points="150.5 338.433 135.5 329.773 130.5 338.433 140.5 355.753 150.5 355.753 150.5 373.074 165.5 381.734 170.5 373.074 165.5 364.414 180.5 355.753 180.5 338.433 170.5 338.433 165.5 329.773 150.5 338.433"/>
  <polygon class="uuid-36f25a5e-242c-4a54-8d9f-bb8f493e18ec" points="120.5 355.753 135.5 347.093 130.5 338.433 110.5 338.433 105.5 347.093 90.5 338.433 75.5 347.093 80.5 355.753 90.5 355.753 90.5 373.074 105.5 381.734 110.5 373.074 120.5 373.074 120.5 355.753"/>
  <polygon class="uuid-36f25a5e-242c-4a54-8d9f-bb8f493e18ec" points="150.5 373.074 165.5 381.734 160.5 390.394 140.5 390.394 135.5 381.734 120.5 390.394 105.5 381.734 110.5 373.074 120.5 373.074 120.5 355.753 135.5 347.093 140.5 355.753 150.5 355.753 150.5 373.074"/>
  <polygon class="uuid-2817c781-ca0c-4d61-8b31-6eaf1d4c8865" points="120.5 321.112 105.5 329.773 110.5 338.433 130.5 338.433 135.5 329.773 150.5 338.433 165.5 329.773 160.5 321.112 150.5 321.112 150.5 303.792 135.5 295.132 130.5 303.792 120.5 303.792 120.5 321.112"/>
  <polygon class="uuid-2bf27d2c-8052-4c9b-bf80-9c210775bd26" points="180.5 390.394 180.5 407.715 190.5 407.715 200.5 390.394 195.5 381.734 210.5 373.074 210.5 355.753 200.5 355.753 195.5 364.414 180.5 355.753 165.5 364.414 170.5 373.074 165.5 381.734 180.5 390.394"/>
  <polygon class="uuid-36f25a5e-242c-4a54-8d9f-bb8f493e18ec" points="150.5 407.715 135.5 416.375 140.5 425.035 160.5 425.035 165.5 416.375 180.5 425.035 195.5 416.375 190.5 407.715 180.5 407.715 180.5 390.394 165.5 381.734 160.5 390.394 150.5 390.394 150.5 407.715"/>
  <polygon class="uuid-2bf27d2c-8052-4c9b-bf80-9c210775bd26" points="240.5 321.112 240.5 338.433 250.5 338.433 260.5 321.112 255.5 312.452 270.5 303.792 270.5 286.471 260.5 286.471 255.5 295.132 240.5 286.471 225.5 295.132 230.5 303.792 225.5 312.452 240.5 321.112"/>
  <polygon class="uuid-36f25a5e-242c-4a54-8d9f-bb8f493e18ec" points="210.5 338.433 195.5 347.093 200.5 355.753 220.5 355.753 225.5 347.093 240.5 355.753 255.5 347.093 250.5 338.433 240.5 338.433 240.5 321.112 225.5 312.452 220.5 321.112 210.5 321.112 210.5 338.433"/>
  <polygon class="uuid-2817c781-ca0c-4d61-8b31-6eaf1d4c8865" points="180.5 251.83 195.5 243.17 190.5 234.51 170.5 234.51 165.5 243.17 150.5 234.51 135.5 243.17 140.5 251.83 150.5 251.83 150.5 269.151 165.5 277.811 170.5 269.151 180.5 269.151 180.5 251.83"/>
  <polygon class="uuid-2bf27d2c-8052-4c9b-bf80-9c210775bd26" points="210.5 269.151 225.5 277.811 230.5 269.151 220.5 251.83 210.5 251.83 210.5 234.51 195.5 225.85 190.5 234.51 195.5 243.17 180.5 251.83 180.5 269.151 190.5 269.151 195.5 277.811 210.5 269.151"/>
  <polygon class="uuid-2817c781-ca0c-4d61-8b31-6eaf1d4c8865" points="90.5 234.51 105.5 225.85 100.5 217.189 80.5 217.189 75.5 225.85 60.5 217.189 45.5 225.85 50.5 234.51 60.5 234.51 60.5 251.83 75.5 260.491 80.5 251.83 90.5 251.83 90.5 234.51"/>
  <polygon class="uuid-2bf27d2c-8052-4c9b-bf80-9c210775bd26" points="120.5 251.83 135.5 260.491 140.5 251.83 130.5 234.51 120.5 234.51 120.5 217.189 105.5 208.529 100.5 217.189 105.5 225.85 90.5 234.51 90.5 251.83 100.5 251.83 105.5 260.491 120.5 251.83"/>
  <polygon class="uuid-2bf27d2c-8052-4c9b-bf80-9c210775bd26" points="60.5 321.112 75.5 329.773 80.5 321.112 70.5 303.792 60.5 303.792 60.5 286.471 45.5 277.811 40.5 286.471 45.5 295.132 30.5 303.792 30.5 321.112 40.5 321.112 45.5 329.773 60.5 321.112"/>
  <polygon class="uuid-85e34568-3428-4967-bc7e-18d3ef6030e9" points="60.5 355.753 60.5 373.074 70.5 373.074 80.5 355.753 75.5 347.093 90.5 338.433 90.5 321.112 80.5 321.112 75.5 329.773 60.5 321.112 45.5 329.773 50.5 338.433 45.5 347.093 60.5 355.753"/>
  <polygon class="uuid-2bf27d2c-8052-4c9b-bf80-9c210775bd26" points="90.5 407.715 75.5 399.055 70.5 407.715 80.5 425.035 90.5 425.035 90.5 442.356 105.5 451.016 110.5 442.356 105.5 433.696 120.5 425.035 120.5 407.715 110.5 407.715 105.5 399.055 90.5 407.715"/>
  <polygon class="uuid-85e34568-3428-4967-bc7e-18d3ef6030e9" points="90.5 373.074 90.5 355.753 80.5 355.753 70.5 373.074 75.5 381.734 60.5 390.394 60.5 407.715 70.5 407.715 75.5 399.055 90.5 407.715 105.5 399.055 100.5 390.394 105.5 381.734 90.5 373.074"/>
  <polygon class="uuid-2bf27d2c-8052-4c9b-bf80-9c210775bd26" points="30.5 269.151 30.5 286.471 40.5 286.471 50.5 269.151 45.5 260.491 60.5 251.83 60.5 234.51 50.5 234.51 45.5 243.17 30.5 234.51 15.5 243.17 20.5 251.83 15.5 260.491 30.5 269.151"/>
  <polygon class="uuid-85e34568-3428-4967-bc7e-18d3ef6030e9" points="30.5 476.997 15.5 468.337 10.5 476.997 20.5 494.317 30.5 494.317 30.5 511.638 45.5 520.298 50.5 511.638 45.5 502.978 60.5 494.317 60.5 476.997 50.5 476.997 45.5 468.337 30.5 476.997"/>
  <polygon class="uuid-85e34568-3428-4967-bc7e-18d3ef6030e9" points="60.5 425.035 45.5 416.375 40.5 425.035 50.5 442.356 60.5 442.356 60.5 459.676 75.5 468.337 80.5 459.676 75.5 451.016 90.5 442.356 90.5 425.035 80.5 425.035 75.5 416.375 60.5 425.035"/>
  <polygon class="uuid-36f25a5e-242c-4a54-8d9f-bb8f493e18ec" points="60.5 459.676 75.5 468.337 70.5 476.997 50.5 476.997 45.5 468.337 30.5 476.997 15.5 468.337 20.5 459.676 30.5 459.676 30.5 442.356 45.5 433.696 50.5 442.356 60.5 442.356 60.5 459.676"/>
  <polygon class="uuid-2bf27d2c-8052-4c9b-bf80-9c210775bd26" points="30.5 546.279 30.5 563.6 40.5 563.6 50.5 546.279 45.5 537.619 60.5 528.959 60.5 511.638 50.5 511.638 45.5 520.298 30.5 511.638 15.5 520.298 20.5 528.959 15.5 537.619 30.5 546.279"/>
  <polygon class="uuid-2bf27d2c-8052-4c9b-bf80-9c210775bd26" points="90.5 476.997 90.5 494.317 100.5 494.317 110.5 476.997 105.5 468.337 120.5 459.676 120.5 442.356 110.5 442.356 105.5 451.016 90.5 442.356 75.5 451.016 80.5 459.676 75.5 468.337 90.5 476.997"/>
  <polygon class="uuid-36f25a5e-242c-4a54-8d9f-bb8f493e18ec" points="60.5 494.317 45.5 502.978 50.5 511.638 70.5 511.638 75.5 502.978 90.5 511.638 105.5 502.978 100.5 494.317 90.5 494.317 90.5 476.997 75.5 468.337 70.5 476.997 60.5 476.997 60.5 494.317"/>
  <polygon class="uuid-36f25a5e-242c-4a54-8d9f-bb8f493e18ec" points="30.5 407.715 15.5 416.375 20.5 425.035 40.5 425.035 45.5 416.375 60.5 425.035 75.5 416.375 70.5 407.715 60.5 407.715 60.5 390.394 45.5 381.734 40.5 390.394 30.5 390.394 30.5 407.715"/>
  <polygon class="uuid-36f25a5e-242c-4a54-8d9f-bb8f493e18ec" points="30.5 373.074 15.5 381.734 20.5 390.394 40.5 390.394 45.5 381.734 60.5 390.394 75.5 381.734 70.5 373.074 60.5 373.074 60.5 355.753 45.5 347.093 40.5 355.753 30.5 355.753 30.5 373.074"/>
  <polygon class="uuid-85e34568-3428-4967-bc7e-18d3ef6030e9" points="30.5 338.433 45.5 329.773 50.5 338.433 40.5 355.753 30.5 355.753 30.5 373.074 15.5 381.734 10.5 373.074 15.5 364.414 .5 355.753 .5 338.433 10.5 338.433 15.5 329.773 30.5 338.433"/>
  <polygon class="uuid-688e41bb-a065-4eff-a8c7-7e10c4d2e85b" points="60.5 528.959 45.5 537.619 50.5 546.279 70.5 546.279 75.5 537.619 90.5 546.279 105.5 537.619 100.5 528.959 90.5 528.959 90.5 511.638 75.5 502.978 70.5 511.638 60.5 511.638 60.5 528.959"/>
  <polygon class="uuid-85e34568-3428-4967-bc7e-18d3ef6030e9" points="120.5 528.959 135.5 537.619 140.5 528.959 130.5 511.638 120.5 511.638 120.5 494.318 105.5 485.657 100.5 494.318 105.5 502.978 90.5 511.638 90.5 528.959 100.5 528.959 105.5 537.619 120.5 528.959"/>
  <polygon class="uuid-d669b00a-2c3b-404b-9cf7-e06e60cd352b" points="180.5 494.318 180.5 511.638 190.5 511.638 200.5 494.318 195.5 485.657 210.5 476.997 210.5 459.676 200.5 459.676 195.5 468.337 180.5 459.676 165.5 468.337 170.5 476.997 165.5 485.657 180.5 494.318"/>
  <polygon class="uuid-d669b00a-2c3b-404b-9cf7-e06e60cd352b" points="120.5 494.318 120.5 511.638 130.5 511.638 140.5 494.318 135.5 485.657 150.5 476.997 150.5 459.676 140.5 459.676 135.5 468.337 120.5 459.676 105.5 468.337 110.5 476.997 105.5 485.657 120.5 494.318"/>
  <polygon class="uuid-d669b00a-2c3b-404b-9cf7-e06e60cd352b" points="150.5 511.638 135.5 502.978 130.5 511.638 140.5 528.959 150.5 528.959 150.5 546.279 165.5 554.939 170.5 546.279 165.5 537.619 180.5 528.959 180.5 511.638 170.5 511.638 165.5 502.978 150.5 511.638"/>
  <polygon class="uuid-d669b00a-2c3b-404b-9cf7-e06e60cd352b" points="150.5 476.997 150.5 459.676 160.5 459.676 170.5 476.997 165.5 485.657 180.5 494.318 180.5 511.638 170.5 511.638 165.5 502.978 150.5 511.638 135.5 502.978 140.5 494.318 135.5 485.657 150.5 476.997"/>
  <polygon class="uuid-36f25a5e-242c-4a54-8d9f-bb8f493e18ec" points="150.5 442.356 165.5 433.696 160.5 425.035 140.5 425.035 135.5 433.696 120.5 425.035 105.5 433.696 110.5 442.356 120.5 442.356 120.5 459.676 135.5 468.337 140.5 459.676 150.5 459.676 150.5 442.356"/>
  <polygon class="uuid-d669b00a-2c3b-404b-9cf7-e06e60cd352b" points="180.5 459.676 195.5 468.337 200.5 459.676 190.5 442.356 180.5 442.356 180.5 425.035 165.5 416.375 160.5 425.035 165.5 433.696 150.5 442.356 150.5 459.676 160.5 459.676 165.5 468.337 180.5 459.676"/>
  <polygon class="uuid-36f25a5e-242c-4a54-8d9f-bb8f493e18ec" points="240.5 459.676 225.5 468.337 230.5 476.997 250.5 476.997 255.5 468.337 270.5 476.997 285.5 468.337 280.5 459.676 270.5 459.676 270.5 442.356 255.5 433.696 250.5 442.356 240.5 442.356 240.5 459.676"/>
  <polygon class="uuid-d669b00a-2c3b-404b-9cf7-e06e60cd352b" points="210.5 442.356 195.5 433.696 190.5 442.356 200.5 459.676 210.5 459.676 210.5 476.997 225.5 485.657 230.5 476.997 225.5 468.337 240.5 459.676 240.5 442.356 230.5 442.356 225.5 433.696 210.5 442.356"/>
  <polygon class="uuid-688e41bb-a065-4eff-a8c7-7e10c4d2e85b" points="240.5 425.035 225.5 433.696 230.5 442.356 250.5 442.356 255.5 433.696 270.5 442.356 285.5 433.696 280.5 425.035 270.5 425.035 270.5 407.715 255.5 399.055 250.5 407.715 240.5 407.715 240.5 425.035"/>
  <polygon class="uuid-688e41bb-a065-4eff-a8c7-7e10c4d2e85b" points="210.5 373.074 195.5 381.734 200.5 390.394 220.5 390.394 225.5 381.734 240.5 390.394 255.5 381.734 250.5 373.074 240.5 373.074 240.5 355.753 225.5 347.093 220.5 355.753 210.5 355.753 210.5 373.074"/>
  <polygon class="uuid-d669b00a-2c3b-404b-9cf7-e06e60cd352b" points="210.5 407.715 210.5 390.394 200.5 390.394 190.5 407.715 195.5 416.375 180.5 425.035 180.5 442.356 190.5 442.356 195.5 433.696 210.5 442.356 225.5 433.696 220.5 425.035 225.5 416.375 210.5 407.715"/>
  <polygon class="uuid-d669b00a-2c3b-404b-9cf7-e06e60cd352b" points="240.5 390.394 255.5 381.734 260.5 390.394 250.5 407.715 240.5 407.715 240.5 425.035 225.5 433.696 220.5 425.035 225.5 416.375 210.5 407.715 210.5 390.394 220.5 390.394 225.5 381.734 240.5 390.394"/>
  <polygon class="uuid-85e34568-3428-4967-bc7e-18d3ef6030e9" points="270.5 373.074 285.5 381.734 290.5 373.074 280.5 355.753 270.5 355.753 270.5 338.433 255.5 329.773 250.5 338.433 255.5 347.093 240.5 355.753 240.5 373.074 250.5 373.074 255.5 381.734 270.5 373.074"/>
  <polygon class="uuid-d669b00a-2c3b-404b-9cf7-e06e60cd352b" points="270.5 407.715 270.5 425.035 280.5 425.035 290.5 407.715 285.5 399.055 300.5 390.394 300.5 373.074 290.5 373.074 285.5 381.734 270.5 373.074 255.5 381.734 260.5 390.394 255.5 399.055 270.5 407.715"/>
  <polygon class="uuid-d669b00a-2c3b-404b-9cf7-e06e60cd352b" points="330.5 338.433 330.5 355.753 340.5 355.753 350.5 338.433 345.5 329.773 360.5 321.112 360.5 303.792 350.5 303.792 345.5 312.452 330.5 303.792 315.5 312.452 320.5 321.112 315.5 329.773 330.5 338.433"/>
  <polygon class="uuid-d669b00a-2c3b-404b-9cf7-e06e60cd352b" points="270.5 338.433 270.5 355.753 280.5 355.753 290.5 338.433 285.5 329.773 300.5 321.112 300.5 303.792 290.5 303.792 285.5 312.452 270.5 303.792 255.5 312.452 260.5 321.112 255.5 329.773 270.5 338.433"/>
  <polygon class="uuid-d669b00a-2c3b-404b-9cf7-e06e60cd352b" points="300.5 355.753 285.5 347.093 280.5 355.753 290.5 373.074 300.5 373.074 300.5 390.394 315.5 399.055 320.5 390.394 315.5 381.734 330.5 373.074 330.5 355.753 320.5 355.753 315.5 347.093 300.5 355.753"/>
  <polygon class="uuid-d669b00a-2c3b-404b-9cf7-e06e60cd352b" points="300.5 321.112 300.5 303.792 310.5 303.792 320.5 321.112 315.5 329.773 330.5 338.433 330.5 355.753 320.5 355.753 315.5 347.093 300.5 355.753 285.5 347.093 290.5 338.433 285.5 329.773 300.5 321.112"/>
  <polygon class="uuid-2bf27d2c-8052-4c9b-bf80-9c210775bd26" points="360.5 355.753 360.5 373.074 370.5 373.074 380.5 355.753 375.5 347.093 390.5 338.433 390.5 321.112 380.5 321.112 375.5 329.773 360.5 321.112 345.5 329.773 350.5 338.433 345.5 347.093 360.5 355.753"/>
  <polygon class="uuid-36f25a5e-242c-4a54-8d9f-bb8f493e18ec" points="330.5 373.074 315.5 381.734 320.5 390.394 340.5 390.394 345.5 381.734 360.5 390.394 375.5 381.734 370.5 373.074 360.5 373.074 360.5 355.753 345.5 347.093 340.5 355.753 330.5 355.753 330.5 373.074"/>
  <polygon class="uuid-36f25a5e-242c-4a54-8d9f-bb8f493e18ec" points="300.5 286.471 315.5 277.811 310.5 269.151 290.5 269.151 285.5 277.811 270.5 269.151 255.5 277.811 260.5 286.471 270.5 286.471 270.5 303.792 285.5 312.452 290.5 303.792 300.5 303.792 300.5 286.471"/>
  <polygon class="uuid-d669b00a-2c3b-404b-9cf7-e06e60cd352b" points="330.5 303.792 345.5 312.452 350.5 303.792 340.5 286.471 330.5 286.471 330.5 269.151 315.5 260.491 310.5 269.151 315.5 277.811 300.5 286.471 300.5 303.792 310.5 303.792 315.5 312.452 330.5 303.792"/>
  <polygon class="uuid-2bf27d2c-8052-4c9b-bf80-9c210775bd26" points="210.5 165.228 225.5 173.888 230.5 165.228 220.5 147.907 210.5 147.907 210.5 130.587 195.5 121.927 190.5 130.587 195.5 139.247 180.5 147.907 180.5 165.228 190.5 165.228 195.5 173.888 210.5 165.228"/>
  <polygon class="uuid-85e34568-3428-4967-bc7e-18d3ef6030e9" points="210.5 199.869 210.5 217.189 220.5 217.189 230.5 199.869 225.5 191.209 240.5 182.548 240.5 165.228 230.5 165.228 225.5 173.888 210.5 165.228 195.5 173.888 200.5 182.548 195.5 191.209 210.5 199.869"/>
  <polygon class="uuid-85e34568-3428-4967-bc7e-18d3ef6030e9" points="180.5 182.548 195.5 191.209 200.5 182.548 190.5 165.228 180.5 165.228 180.5 147.907 165.5 139.247 160.5 147.907 165.5 156.568 150.5 165.228 150.5 182.548 160.5 182.548 165.5 191.209 180.5 182.548"/>
  <polygon class="uuid-85e34568-3428-4967-bc7e-18d3ef6030e9" points="150.5 234.51 165.5 243.17 170.5 234.51 160.5 217.189 150.5 217.189 150.5 199.869 135.5 191.209 130.5 199.869 135.5 208.529 120.5 217.189 120.5 234.51 130.5 234.51 135.5 243.17 150.5 234.51"/>
  <polygon class="uuid-36f25a5e-242c-4a54-8d9f-bb8f493e18ec" points="180.5 217.189 165.5 225.85 170.5 234.51 190.5 234.51 195.5 225.85 210.5 234.51 225.5 225.85 220.5 217.189 210.5 217.189 210.5 199.869 195.5 191.209 190.5 199.869 180.5 199.869 180.5 217.189"/>
  <polygon class="uuid-36f25a5e-242c-4a54-8d9f-bb8f493e18ec" points="150.5 199.869 135.5 191.209 140.5 182.548 160.5 182.548 165.5 191.209 180.5 182.548 195.5 191.209 190.5 199.869 180.5 199.869 180.5 217.189 165.5 225.85 160.5 217.189 150.5 217.189 150.5 199.869"/>
  <polygon class="uuid-2bf27d2c-8052-4c9b-bf80-9c210775bd26" points="120.5 182.548 120.5 165.228 110.5 165.228 100.5 182.548 105.5 191.209 90.5 199.869 90.5 217.189 100.5 217.189 105.5 208.529 120.5 217.189 135.5 208.529 130.5 199.869 135.5 191.209 120.5 182.548"/>
  <polygon class="uuid-36f25a5e-242c-4a54-8d9f-bb8f493e18ec" points="150.5 165.228 165.5 156.568 160.5 147.907 140.5 147.907 135.5 156.568 120.5 147.907 105.5 156.568 110.5 165.228 120.5 165.228 120.5 182.548 135.5 191.209 140.5 182.548 150.5 182.548 150.5 165.228"/>
  <polygon class="uuid-36f25a5e-242c-4a54-8d9f-bb8f493e18ec" points="60.5 147.907 75.5 139.247 70.5 130.587 50.5 130.587 45.5 139.247 30.5 130.587 15.5 139.247 20.5 147.907 30.5 147.907 30.5 165.228 45.5 173.888 50.5 165.228 60.5 165.228 60.5 147.907"/>
  <polygon class="uuid-36f25a5e-242c-4a54-8d9f-bb8f493e18ec" points="90.5 199.869 105.5 191.209 100.5 182.548 80.5 182.548 75.5 191.209 60.5 182.548 45.5 191.209 50.5 199.869 60.5 199.869 60.5 217.189 75.5 225.85 80.5 217.189 90.5 217.189 90.5 199.869"/>
  <polygon class="uuid-85e34568-3428-4967-bc7e-18d3ef6030e9" points="90.5 165.228 90.5 182.548 100.5 182.548 110.5 165.228 105.5 156.568 120.5 147.907 120.5 130.587 110.5 130.587 105.5 139.247 90.5 130.587 75.5 139.247 80.5 147.907 75.5 156.568 90.5 165.228"/>
  <polygon class="uuid-85e34568-3428-4967-bc7e-18d3ef6030e9" points="60.5 182.548 45.5 191.209 40.5 182.548 50.5 165.228 60.5 165.228 60.5 147.907 75.5 139.247 80.5 147.907 75.5 156.568 90.5 165.228 90.5 182.548 80.5 182.548 75.5 191.209 60.5 182.548"/>
  <polygon class="uuid-2bf27d2c-8052-4c9b-bf80-9c210775bd26" points="30.5 199.869 15.5 191.209 10.5 199.869 20.5 217.189 30.5 217.189 30.5 234.51 45.5 243.17 50.5 234.51 45.5 225.85 60.5 217.189 60.5 199.869 50.5 199.869 45.5 191.209 30.5 199.869"/>
  <polygon class="uuid-85e34568-3428-4967-bc7e-18d3ef6030e9" points="30.5 165.228 30.5 147.907 20.5 147.907 10.5 165.228 15.5 173.888 .5 182.548 .5 199.869 10.5 199.869 15.5 191.209 30.5 199.869 45.5 191.209 40.5 182.548 45.5 173.888 30.5 165.228"/>
  <polygon class="uuid-688e41bb-a065-4eff-a8c7-7e10c4d2e85b" points="240.5 43.984 225.5 52.645 230.5 61.305 250.5 61.305 255.5 52.645 270.5 61.305 285.5 52.645 280.5 43.984 270.5 43.984 270.5 26.664 255.5 18.004 250.5 26.664 240.5 26.664 240.5 43.984"/>
  <polygon class="uuid-d669b00a-2c3b-404b-9cf7-e06e60cd352b" points="210.5 26.664 195.5 18.004 190.5 26.664 200.5 43.984 210.5 43.984 210.5 61.305 225.5 69.965 230.5 61.305 225.5 52.645 240.5 43.984 240.5 26.664 230.5 26.664 225.5 18.004 210.5 26.664"/>
  <polygon class="uuid-85e34568-3428-4967-bc7e-18d3ef6030e9" points="60.5 43.984 75.5 52.645 80.5 43.984 70.5 26.664 60.5 26.664 60.5 9.343 45.5 .683 40.5 9.343 45.5 18.004 30.5 26.664 30.5 43.984 40.5 43.984 45.5 52.645 60.5 43.984"/>
  <polygon class="uuid-85e34568-3428-4967-bc7e-18d3ef6030e9" points="30.5 95.946 45.5 104.606 50.5 95.946 40.5 78.625 30.5 78.625 30.5 61.305 15.5 52.645 10.5 61.305 15.5 69.965 .5 78.625 .5 95.946 10.5 95.946 15.5 104.606 30.5 95.946"/>
  <polygon class="uuid-36f25a5e-242c-4a54-8d9f-bb8f493e18ec" points="60.5 78.625 45.5 87.286 50.5 95.946 70.5 95.946 75.5 87.286 90.5 95.946 105.5 87.286 100.5 78.625 90.5 78.625 90.5 61.305 75.5 52.645 70.5 61.305 60.5 61.305 60.5 78.625"/>
  <polygon class="uuid-36f25a5e-242c-4a54-8d9f-bb8f493e18ec" points="30.5 61.305 15.5 52.645 20.5 43.984 40.5 43.984 45.5 52.645 60.5 43.984 75.5 52.645 70.5 61.305 60.5 61.305 60.5 78.625 45.5 87.286 40.5 78.625 30.5 78.625 30.5 61.305"/>
  <polygon class="uuid-688e41bb-a065-4eff-a8c7-7e10c4d2e85b" points="150.5 95.946 135.5 104.606 140.5 113.266 160.5 113.266 165.5 104.606 180.5 113.266 195.5 104.606 190.5 95.946 180.5 95.946 180.5 78.625 165.5 69.965 160.5 78.625 150.5 78.625 150.5 95.946"/>
  <polygon class="uuid-688e41bb-a065-4eff-a8c7-7e10c4d2e85b" points="120.5 43.984 105.5 52.645 110.5 61.305 130.5 61.305 135.5 52.645 150.5 61.305 165.5 52.645 160.5 43.984 150.5 43.984 150.5 26.664 135.5 18.004 130.5 26.664 120.5 26.664 120.5 43.984"/>
  <polygon class="uuid-d669b00a-2c3b-404b-9cf7-e06e60cd352b" points="120.5 78.625 120.5 61.305 110.5 61.305 100.5 78.625 105.5 87.286 90.5 95.946 90.5 113.266 100.5 113.266 105.5 104.606 120.5 113.266 135.5 104.606 130.5 95.946 135.5 87.286 120.5 78.625"/>
  <polygon class="uuid-d669b00a-2c3b-404b-9cf7-e06e60cd352b" points="150.5 61.305 165.5 52.645 170.5 61.305 160.5 78.625 150.5 78.625 150.5 95.946 135.5 104.606 130.5 95.946 135.5 87.286 120.5 78.625 120.5 61.305 130.5 61.305 135.5 52.645 150.5 61.305"/>
  <polygon class="uuid-2bf27d2c-8052-4c9b-bf80-9c210775bd26" points="90.5 61.305 90.5 78.625 100.5 78.625 110.5 61.305 105.5 52.645 120.5 43.984 120.5 26.664 110.5 26.664 105.5 35.324 90.5 26.664 75.5 35.324 80.5 43.984 75.5 52.645 90.5 61.305"/>
  <polygon class="uuid-85e34568-3428-4967-bc7e-18d3ef6030e9" points="180.5 43.984 195.5 52.645 200.5 43.984 190.5 26.664 180.5 26.664 180.5 9.343 165.5 .683 160.5 9.343 165.5 18.004 150.5 26.664 150.5 43.984 160.5 43.984 165.5 52.645 180.5 43.984"/>
  <polygon class="uuid-d669b00a-2c3b-404b-9cf7-e06e60cd352b" points="180.5 78.625 180.5 95.946 190.5 95.946 200.5 78.625 195.5 69.965 210.5 61.305 210.5 43.984 200.5 43.984 195.5 52.645 180.5 43.984 165.5 52.645 170.5 61.305 165.5 69.965 180.5 78.625"/>
  <polygon class="uuid-36f25a5e-242c-4a54-8d9f-bb8f493e18ec" points="60.5 113.266 75.5 104.606 70.5 95.946 50.5 95.946 45.5 104.606 30.5 95.946 15.5 104.606 20.5 113.266 30.5 113.266 30.5 130.587 45.5 139.247 50.5 130.587 60.5 130.587 60.5 113.266"/>
  <polygon class="uuid-d669b00a-2c3b-404b-9cf7-e06e60cd352b" points="90.5 130.587 105.5 139.247 110.5 130.587 100.5 113.266 90.5 113.266 90.5 95.946 75.5 87.286 70.5 95.946 75.5 104.606 60.5 113.266 60.5 130.587 70.5 130.587 75.5 139.247 90.5 130.587"/>
  <polygon class="uuid-36f25a5e-242c-4a54-8d9f-bb8f493e18ec" points="150.5 130.587 135.5 139.247 140.5 147.907 160.5 147.907 165.5 139.247 180.5 147.907 195.5 139.247 190.5 130.587 180.5 130.587 180.5 113.266 165.5 104.606 160.5 113.266 150.5 113.266 150.5 130.587"/>
  <polygon class="uuid-d669b00a-2c3b-404b-9cf7-e06e60cd352b" points="120.5 113.266 105.5 104.606 100.5 113.266 110.5 130.587 120.5 130.587 120.5 147.907 135.5 156.568 140.5 147.907 135.5 139.247 150.5 130.587 150.5 113.266 140.5 113.266 135.5 104.606 120.5 113.266"/>
  <polygon class="uuid-9761906b-149a-47ca-9332-d996a0e75877" points="480.5 9.343 465.5 .683 460.5 9.343 470.5 26.664 480.5 26.664 480.5 43.984 495.5 52.645 500.5 43.984 495.5 35.324 510.5 26.664 510.5 9.343 500.5 9.343 495.5 .683 480.5 9.343"/>
  <polygon class="uuid-ce80e62e-a9c0-4b0a-8690-6bc0e00e81e4" points="810.5 95.946 795.5 87.286 790.5 95.946 800.5 113.266 810.5 113.266 810.5 130.587 825.5 139.247 830.5 130.587 825.5 121.927 840.5 113.266 840.5 95.946 830.5 95.946 825.5 87.286 810.5 95.946"/>
  <polygon class="uuid-f5d5e043-383c-4140-bc1e-076779b3b341" points="810.5 61.305 810.5 43.984 800.5 43.984 790.5 61.305 795.5 69.965 780.5 78.625 780.5 95.946 790.5 95.946 795.5 87.286 810.5 95.946 825.5 87.286 820.5 78.625 825.5 69.965 810.5 61.305"/>
  <polygon class="uuid-f5d5e043-383c-4140-bc1e-076779b3b341" points="840.5 78.625 825.5 69.965 820.5 78.625 830.5 95.946 840.5 95.946 840.5 113.266 855.5 121.927 860.5 113.266 855.5 104.606 870.5 95.946 870.5 78.625 860.5 78.625 855.5 69.965 840.5 78.625"/>
  <polygon class="uuid-f5d5e043-383c-4140-bc1e-076779b3b341" points="870.5 26.664 855.5 18.004 850.5 26.664 860.5 43.984 870.5 43.984 870.5 61.305 885.5 69.965 890.5 61.305 885.5 52.645 900.5 43.984 900.5 26.664 890.5 26.664 885.5 18.004 870.5 26.664"/>
  <polygon class="uuid-f5d5e043-383c-4140-bc1e-076779b3b341" points="840.5 43.984 855.5 35.324 850.5 26.664 830.5 26.664 825.5 35.324 810.5 26.664 795.5 35.324 800.5 43.984 810.5 43.984 810.5 61.305 825.5 69.965 830.5 61.305 840.5 61.305 840.5 43.984"/>
  <polygon class="uuid-f5d5e043-383c-4140-bc1e-076779b3b341" points="870.5 61.305 885.5 69.965 880.5 78.625 860.5 78.625 855.5 69.965 840.5 78.625 825.5 69.965 830.5 61.305 840.5 61.305 840.5 43.984 855.5 35.324 860.5 43.984 870.5 43.984 870.5 61.305"/>
  <polygon class="uuid-f5d5e043-383c-4140-bc1e-076779b3b341" points="870.5 95.946 855.5 104.606 860.5 113.266 880.5 113.266 885.5 104.606 900.5 113.266 915.5 104.606 910.5 95.946 900.5 95.946 900.5 78.625 885.5 69.965 880.5 78.625 870.5 78.625 870.5 95.946"/>
  <polygon class="uuid-ce80e62e-a9c0-4b0a-8690-6bc0e00e81e4" points="360.5 147.907 345.5 139.247 340.5 147.907 350.5 165.228 360.5 165.228 360.5 182.548 375.5 191.209 380.5 182.548 375.5 173.888 390.5 165.228 390.5 147.907 380.5 147.907 375.5 139.247 360.5 147.907"/>
  <polygon class="uuid-ce80e62e-a9c0-4b0a-8690-6bc0e00e81e4" points="390.5 95.946 375.5 87.286 370.5 95.946 380.5 113.266 390.5 113.266 390.5 130.587 405.5 139.247 410.5 130.587 405.5 121.927 420.5 113.266 420.5 95.946 410.5 95.946 405.5 87.286 390.5 95.946"/>
  <polygon class="uuid-85e34568-3428-4967-bc7e-18d3ef6030e9" points="360.5 113.266 375.5 104.606 370.5 95.946 350.5 95.946 345.5 104.606 330.5 95.946 315.5 104.606 320.5 113.266 330.5 113.266 330.5 130.587 345.5 139.247 350.5 130.587 360.5 130.587 360.5 113.266"/>
  <polygon class="uuid-85e34568-3428-4967-bc7e-18d3ef6030e9" points="390.5 130.587 405.5 139.247 400.5 147.907 380.5 147.907 375.5 139.247 360.5 147.907 345.5 139.247 350.5 130.587 360.5 130.587 360.5 113.266 375.5 104.606 380.5 113.266 390.5 113.266 390.5 130.587"/>
  <polygon class="uuid-ce80e62e-a9c0-4b0a-8690-6bc0e00e81e4" points="420.5 78.625 405.5 69.965 400.5 78.625 410.5 95.946 420.5 95.946 420.5 113.266 435.5 121.927 440.5 113.266 435.5 104.606 450.5 95.946 450.5 78.625 440.5 78.625 435.5 69.965 420.5 78.625"/>
  <polygon class="uuid-ce80e62e-a9c0-4b0a-8690-6bc0e00e81e4" points="450.5 26.664 435.5 18.004 430.5 26.664 440.5 43.984 450.5 43.984 450.5 61.305 465.5 69.965 470.5 61.305 465.5 52.645 480.5 43.984 480.5 26.664 470.5 26.664 465.5 18.004 450.5 26.664"/>
  <polygon class="uuid-85e34568-3428-4967-bc7e-18d3ef6030e9" points="420.5 43.984 435.5 35.324 430.5 26.664 410.5 26.664 405.5 35.324 390.5 26.664 375.5 35.324 380.5 43.984 390.5 43.984 390.5 61.305 405.5 69.965 410.5 61.305 420.5 61.305 420.5 43.984"/>
  <polygon class="uuid-85e34568-3428-4967-bc7e-18d3ef6030e9" points="450.5 61.305 465.5 69.965 460.5 78.625 440.5 78.625 435.5 69.965 420.5 78.625 405.5 69.965 410.5 61.305 420.5 61.305 420.5 43.984 435.5 35.324 440.5 43.984 450.5 43.984 450.5 61.305"/>
  <polygon class="uuid-e55e4a14-d413-4950-afdc-cf9eeb4d1252" points="330.5 26.664 345.5 18.004 340.5 9.343 320.5 9.343 315.5 18.004 300.5 9.343 285.5 18.004 290.5 26.664 300.5 26.664 300.5 43.984 315.5 52.645 320.5 43.984 330.5 43.984 330.5 26.664"/>
  <polygon class="uuid-e55e4a14-d413-4950-afdc-cf9eeb4d1252" points="360.5 78.625 375.5 69.965 370.5 61.305 350.5 61.305 345.5 69.965 330.5 61.305 315.5 69.965 320.5 78.625 330.5 78.625 330.5 95.946 345.5 104.606 350.5 95.946 360.5 95.946 360.5 78.625"/>
  <polygon class="uuid-85d39cda-f6f9-4baf-bef3-04e588b9ac04" points="360.5 43.984 360.5 61.305 370.5 61.305 380.5 43.984 375.5 35.324 390.5 26.664 390.5 9.343 380.5 9.343 375.5 18.004 360.5 9.343 345.5 18.004 350.5 26.664 345.5 35.324 360.5 43.984"/>
  <polygon class="uuid-85d39cda-f6f9-4baf-bef3-04e588b9ac04" points="330.5 61.305 315.5 69.965 310.5 61.305 320.5 43.984 330.5 43.984 330.5 26.664 345.5 18.004 350.5 26.664 345.5 35.324 360.5 43.984 360.5 61.305 350.5 61.305 345.5 69.965 330.5 61.305"/>
  <polygon class="uuid-9761906b-149a-47ca-9332-d996a0e75877" points="390.5 61.305 390.5 43.984 380.5 43.984 370.5 61.305 375.5 69.965 360.5 78.625 360.5 95.946 370.5 95.946 375.5 87.286 390.5 95.946 405.5 87.286 400.5 78.625 405.5 69.965 390.5 61.305"/>
  <polygon class="uuid-ce80e62e-a9c0-4b0a-8690-6bc0e00e81e4" points="300.5 78.625 285.5 69.965 280.5 78.625 290.5 95.946 300.5 95.946 300.5 113.266 315.5 121.927 320.5 113.266 315.5 104.606 330.5 95.946 330.5 78.625 320.5 78.625 315.5 69.965 300.5 78.625"/>
  <polygon class="uuid-85d39cda-f6f9-4baf-bef3-04e588b9ac04" points="300.5 43.984 300.5 26.664 290.5 26.664 280.5 43.984 285.5 52.645 270.5 61.305 270.5 78.625 280.5 78.625 285.5 69.965 300.5 78.625 315.5 69.965 310.5 61.305 315.5 52.645 300.5 43.984"/>
  <polygon class="uuid-ce80e62e-a9c0-4b0a-8690-6bc0e00e81e4" points="330.5 165.228 315.5 156.568 310.5 165.228 320.5 182.548 330.5 182.548 330.5 199.869 345.5 208.529 350.5 199.869 345.5 191.209 360.5 182.548 360.5 165.228 350.5 165.228 345.5 156.568 330.5 165.228"/>
  <polygon class="uuid-85d39cda-f6f9-4baf-bef3-04e588b9ac04" points="330.5 130.587 330.5 113.266 320.5 113.266 310.5 130.587 315.5 139.247 300.5 147.907 300.5 165.228 310.5 165.228 315.5 156.568 330.5 165.228 345.5 156.568 340.5 147.907 345.5 139.247 330.5 130.587"/>
  <polygon class="uuid-9761906b-149a-47ca-9332-d996a0e75877" points="420.5 147.907 420.5 165.228 430.5 165.228 440.5 147.907 435.5 139.247 450.5 130.587 450.5 113.266 440.5 113.266 435.5 121.927 420.5 113.266 405.5 121.927 410.5 130.587 405.5 139.247 420.5 147.907"/>
  <polygon class="uuid-85e34568-3428-4967-bc7e-18d3ef6030e9" points="390.5 165.228 375.5 173.888 380.5 182.548 400.5 182.548 405.5 173.888 420.5 182.548 435.5 173.888 430.5 165.228 420.5 165.228 420.5 147.907 405.5 139.247 400.5 147.907 390.5 147.907 390.5 165.228"/>
  <polygon class="uuid-9761906b-149a-47ca-9332-d996a0e75877" points="480.5 78.625 480.5 95.946 490.5 95.946 500.5 78.625 495.5 69.965 510.5 61.305 510.5 43.984 500.5 43.984 495.5 52.645 480.5 43.984 465.5 52.645 470.5 61.305 465.5 69.965 480.5 78.625"/>
  <polygon class="uuid-85e34568-3428-4967-bc7e-18d3ef6030e9" points="450.5 95.946 435.5 104.606 440.5 113.266 460.5 113.266 465.5 104.606 480.5 113.266 495.5 104.606 490.5 95.946 480.5 95.946 480.5 78.625 465.5 69.965 460.5 78.625 450.5 78.625 450.5 95.946"/>
  <polygon class="uuid-9761906b-149a-47ca-9332-d996a0e75877" points="210.5 95.946 210.5 78.625 200.5 78.625 190.5 95.946 195.5 104.606 180.5 113.266 180.5 130.587 190.5 130.587 195.5 121.927 210.5 130.587 225.5 121.927 220.5 113.266 225.5 104.606 210.5 95.946"/>
  <polygon class="uuid-85e34568-3428-4967-bc7e-18d3ef6030e9" points="240.5 78.625 255.5 69.965 250.5 61.305 230.5 61.305 225.5 69.965 210.5 61.305 195.5 69.965 200.5 78.625 210.5 78.625 210.5 95.946 225.5 104.606 230.5 95.946 240.5 95.946 240.5 78.625"/>
  <polygon class="uuid-ce80e62e-a9c0-4b0a-8690-6bc0e00e81e4" points="240.5 113.266 240.5 95.946 230.5 95.946 220.5 113.266 225.5 121.927 210.5 130.587 210.5 147.907 220.5 147.907 225.5 139.247 240.5 147.907 255.5 139.247 250.5 130.587 255.5 121.927 240.5 113.266"/>
  <polygon class="uuid-ce80e62e-a9c0-4b0a-8690-6bc0e00e81e4" points="300.5 113.266 300.5 95.946 290.5 95.946 280.5 113.266 285.5 121.927 270.5 130.587 270.5 147.907 280.5 147.907 285.5 139.247 300.5 147.907 315.5 139.247 310.5 130.587 315.5 121.927 300.5 113.266"/>
  <polygon class="uuid-ce80e62e-a9c0-4b0a-8690-6bc0e00e81e4" points="270.5 95.946 285.5 104.606 290.5 95.946 280.5 78.625 270.5 78.625 270.5 61.305 255.5 52.645 250.5 61.305 255.5 69.965 240.5 78.625 240.5 95.946 250.5 95.946 255.5 104.606 270.5 95.946"/>
  <polygon class="uuid-ce80e62e-a9c0-4b0a-8690-6bc0e00e81e4" points="270.5 130.587 270.5 147.907 260.5 147.907 250.5 130.587 255.5 121.927 240.5 113.266 240.5 95.946 250.5 95.946 255.5 104.606 270.5 95.946 285.5 104.606 280.5 113.266 285.5 121.927 270.5 130.587"/>
  <polygon class="uuid-209859b8-fc19-4f82-bdee-e0a9fb9ba67f" points="270.5 165.228 255.5 173.888 260.5 182.548 280.5 182.548 285.5 173.888 300.5 182.548 315.5 173.888 310.5 165.228 300.5 165.228 300.5 147.907 285.5 139.247 280.5 147.907 270.5 147.907 270.5 165.228"/>
  <polygon class="uuid-ce80e62e-a9c0-4b0a-8690-6bc0e00e81e4" points="240.5 147.907 225.5 139.247 220.5 147.907 230.5 165.228 240.5 165.228 240.5 182.548 255.5 191.209 260.5 182.548 255.5 173.888 270.5 165.228 270.5 147.907 260.5 147.907 255.5 139.247 240.5 147.907"/>
  <polygon class="uuid-ce80e62e-a9c0-4b0a-8690-6bc0e00e81e4" points="270.5 234.51 255.5 225.85 250.5 234.51 260.5 251.83 270.5 251.83 270.5 269.151 285.5 277.811 290.5 269.151 285.5 260.491 300.5 251.83 300.5 234.51 290.5 234.51 285.5 225.85 270.5 234.51"/>
  <polygon class="uuid-ce80e62e-a9c0-4b0a-8690-6bc0e00e81e4" points="300.5 182.548 285.5 173.888 280.5 182.548 290.5 199.869 300.5 199.869 300.5 217.189 315.5 225.85 320.5 217.189 315.5 208.529 330.5 199.869 330.5 182.548 320.5 182.548 315.5 173.888 300.5 182.548"/>
  <polygon class="uuid-85e34568-3428-4967-bc7e-18d3ef6030e9" points="270.5 199.869 285.5 191.209 280.5 182.548 260.5 182.548 255.5 191.209 240.5 182.548 225.5 191.209 230.5 199.869 240.5 199.869 240.5 217.189 255.5 225.85 260.5 217.189 270.5 217.189 270.5 199.869"/>
  <polygon class="uuid-85e34568-3428-4967-bc7e-18d3ef6030e9" points="300.5 217.189 315.5 225.85 310.5 234.51 290.5 234.51 285.5 225.85 270.5 234.51 255.5 225.85 260.5 217.189 270.5 217.189 270.5 199.869 285.5 191.209 290.5 199.869 300.5 199.869 300.5 217.189"/>
  <polygon class="uuid-e5cda36d-6cee-46be-b8fd-ddd5f0dd3736" points="240.5 251.83 225.5 243.17 220.5 251.83 230.5 269.151 240.5 269.151 240.5 286.471 255.5 295.132 260.5 286.471 255.5 277.811 270.5 269.151 270.5 251.83 260.5 251.83 255.5 243.17 240.5 251.83"/>
  <polygon class="uuid-9761906b-149a-47ca-9332-d996a0e75877" points="240.5 217.189 240.5 199.869 230.5 199.869 220.5 217.189 225.5 225.85 210.5 234.51 210.5 251.83 220.5 251.83 225.5 243.17 240.5 251.83 255.5 243.17 250.5 234.51 255.5 225.85 240.5 217.189"/>
  <polygon class="uuid-9761906b-149a-47ca-9332-d996a0e75877" points="330.5 234.51 330.5 251.83 340.5 251.83 350.5 234.51 345.5 225.85 360.5 217.189 360.5 199.869 350.5 199.869 345.5 208.529 330.5 199.869 315.5 208.529 320.5 217.189 315.5 225.85 330.5 234.51"/>
  <polygon class="uuid-85e34568-3428-4967-bc7e-18d3ef6030e9" points="300.5 251.83 285.5 260.491 290.5 269.151 310.5 269.151 315.5 260.491 330.5 269.151 345.5 260.491 340.5 251.83 330.5 251.83 330.5 234.51 315.5 225.85 310.5 234.51 300.5 234.51 300.5 251.83"/>
  <polygon class="uuid-85e34568-3428-4967-bc7e-18d3ef6030e9" points="480.5 217.189 465.5 225.85 470.5 234.51 490.5 234.51 495.5 225.85 510.5 234.51 525.5 225.85 520.5 217.189 510.5 217.189 510.5 199.869 495.5 191.209 490.5 199.869 480.5 199.869 480.5 217.189"/>
  <polygon class="uuid-d669b00a-2c3b-404b-9cf7-e06e60cd352b" points="450.5 199.869 435.5 191.209 430.5 199.869 440.5 217.189 450.5 217.189 450.5 234.51 465.5 243.17 470.5 234.51 465.5 225.85 480.5 217.189 480.5 199.869 470.5 199.869 465.5 191.209 450.5 199.869"/>
  <polygon class="uuid-e55e4a14-d413-4950-afdc-cf9eeb4d1252" points="480.5 182.548 465.5 191.209 470.5 199.869 490.5 199.869 495.5 191.209 510.5 199.869 525.5 191.209 520.5 182.548 510.5 182.548 510.5 165.228 495.5 156.568 490.5 165.228 480.5 165.228 480.5 182.548"/>
  <polygon class="uuid-e55e4a14-d413-4950-afdc-cf9eeb4d1252" points="450.5 130.587 435.5 139.247 440.5 147.907 460.5 147.907 465.5 139.247 480.5 147.907 495.5 139.247 490.5 130.587 480.5 130.587 480.5 113.266 465.5 104.606 460.5 113.266 450.5 113.266 450.5 130.587"/>
  <polygon class="uuid-85d39cda-f6f9-4baf-bef3-04e588b9ac04" points="450.5 165.228 450.5 147.907 440.5 147.907 430.5 165.228 435.5 173.888 420.5 182.548 420.5 199.869 430.5 199.869 435.5 191.209 450.5 199.869 465.5 191.209 460.5 182.548 465.5 173.888 450.5 165.228"/>
  <polygon class="uuid-85d39cda-f6f9-4baf-bef3-04e588b9ac04" points="480.5 147.907 495.5 139.247 500.5 147.907 490.5 165.228 480.5 165.228 480.5 182.548 465.5 191.209 460.5 182.548 465.5 173.888 450.5 165.228 450.5 147.907 460.5 147.907 465.5 139.247 480.5 147.907"/>
  <polygon class="uuid-ce80e62e-a9c0-4b0a-8690-6bc0e00e81e4" points="510.5 130.587 525.5 139.247 530.5 130.587 520.5 113.266 510.5 113.266 510.5 95.946 495.5 87.286 490.5 95.946 495.5 104.606 480.5 113.266 480.5 130.587 490.5 130.587 495.5 139.247 510.5 130.587"/>
  <polygon class="uuid-85d39cda-f6f9-4baf-bef3-04e588b9ac04" points="510.5 165.228 510.5 182.548 520.5 182.548 530.5 165.228 525.5 156.568 540.5 147.907 540.5 130.587 530.5 130.587 525.5 139.247 510.5 130.587 495.5 139.247 500.5 147.907 495.5 156.568 510.5 165.228"/>
  <polygon class="uuid-d669b00a-2c3b-404b-9cf7-e06e60cd352b" points="570.5 95.946 570.5 113.266 580.5 113.266 590.5 95.946 585.5 87.286 600.5 78.625 600.5 61.305 590.5 61.305 585.5 69.965 570.5 61.305 555.5 69.965 560.5 78.625 555.5 87.286 570.5 95.946"/>
  <polygon class="uuid-d669b00a-2c3b-404b-9cf7-e06e60cd352b" points="510.5 95.946 510.5 113.266 520.5 113.266 530.5 95.946 525.5 87.286 540.5 78.625 540.5 61.305 530.5 61.305 525.5 69.965 510.5 61.305 495.5 69.965 500.5 78.625 495.5 87.286 510.5 95.946"/>
  <polygon class="uuid-d669b00a-2c3b-404b-9cf7-e06e60cd352b" points="540.5 113.266 525.5 104.606 520.5 113.266 530.5 130.587 540.5 130.587 540.5 147.907 555.5 156.568 560.5 147.907 555.5 139.247 570.5 130.587 570.5 113.266 560.5 113.266 555.5 104.606 540.5 113.266"/>
  <polygon class="uuid-d669b00a-2c3b-404b-9cf7-e06e60cd352b" points="540.5 78.625 540.5 61.305 550.5 61.305 560.5 78.625 555.5 87.286 570.5 95.946 570.5 113.266 560.5 113.266 555.5 104.606 540.5 113.266 525.5 104.606 530.5 95.946 525.5 87.286 540.5 78.625"/>
  <polygon class="uuid-9761906b-149a-47ca-9332-d996a0e75877" points="600.5 113.266 600.5 130.587 610.5 130.587 620.5 113.266 615.5 104.606 630.5 95.946 630.5 78.625 620.5 78.625 615.5 87.286 600.5 78.625 585.5 87.286 590.5 95.946 585.5 104.606 600.5 113.266"/>
  <polygon class="uuid-85e34568-3428-4967-bc7e-18d3ef6030e9" points="570.5 130.587 555.5 139.247 560.5 147.907 580.5 147.907 585.5 139.247 600.5 147.907 615.5 139.247 610.5 130.587 600.5 130.587 600.5 113.266 585.5 104.606 580.5 113.266 570.5 113.266 570.5 130.587"/>
  <polygon class="uuid-85e34568-3428-4967-bc7e-18d3ef6030e9" points="540.5 43.984 555.5 35.324 550.5 26.664 530.5 26.664 525.5 35.324 510.5 26.664 495.5 35.324 500.5 43.984 510.5 43.984 510.5 61.305 525.5 69.965 530.5 61.305 540.5 61.305 540.5 43.984"/>
  <polygon class="uuid-d669b00a-2c3b-404b-9cf7-e06e60cd352b" points="570.5 61.305 585.5 69.965 590.5 61.305 580.5 43.984 570.5 43.984 570.5 26.664 555.5 18.004 550.5 26.664 555.5 35.324 540.5 43.984 540.5 61.305 550.5 61.305 555.5 69.965 570.5 61.305"/>
  <polygon class="uuid-85e34568-3428-4967-bc7e-18d3ef6030e9" points="900.5 321.112 915.5 329.773 920.5 321.112 910.5 303.792 900.5 303.792 900.5 286.471 885.5 277.811 880.5 286.471 885.5 295.132 870.5 303.792 870.5 321.112 880.5 321.112 885.5 329.773 900.5 321.112"/>
  <polygon class="uuid-2bf27d2c-8052-4c9b-bf80-9c210775bd26" points="870.5 269.151 870.5 251.83 860.5 251.83 850.5 269.151 855.5 277.811 840.5 286.471 840.5 303.792 850.5 303.792 855.5 295.132 870.5 303.792 885.5 295.132 880.5 286.471 885.5 277.811 870.5 269.151"/>
  <polygon class="uuid-36f25a5e-242c-4a54-8d9f-bb8f493e18ec" points="900.5 251.83 915.5 243.17 910.5 234.51 890.5 234.51 885.5 243.17 870.5 234.51 855.5 243.17 860.5 251.83 870.5 251.83 870.5 269.151 885.5 277.811 890.5 269.151 900.5 269.151 900.5 251.83"/>
  <polygon class="uuid-36f25a5e-242c-4a54-8d9f-bb8f493e18ec" points="870.5 130.587 885.5 121.927 880.5 113.266 860.5 113.266 855.5 121.927 840.5 113.266 825.5 121.927 830.5 130.587 840.5 130.587 840.5 147.907 855.5 156.568 860.5 147.907 870.5 147.907 870.5 130.587"/>
  <polygon class="uuid-d669b00a-2c3b-404b-9cf7-e06e60cd352b" points="900.5 147.907 915.5 156.568 920.5 147.907 910.5 130.587 900.5 130.587 900.5 113.266 885.5 104.606 880.5 113.266 885.5 121.927 870.5 130.587 870.5 147.907 880.5 147.907 885.5 156.568 900.5 147.907"/>
  <polygon class="uuid-688e41bb-a065-4eff-a8c7-7e10c4d2e85b" points="870.5 165.228 885.5 156.568 880.5 147.907 860.5 147.907 855.5 156.568 840.5 147.907 825.5 156.568 830.5 165.228 840.5 165.228 840.5 182.548 855.5 191.209 860.5 182.548 870.5 182.548 870.5 165.228"/>
  <polygon class="uuid-688e41bb-a065-4eff-a8c7-7e10c4d2e85b" points="900.5 217.189 915.5 208.529 910.5 199.869 890.5 199.869 885.5 208.529 870.5 199.869 855.5 208.529 860.5 217.189 870.5 217.189 870.5 234.51 885.5 243.17 890.5 234.51 900.5 234.51 900.5 217.189"/>
  <polygon class="uuid-d669b00a-2c3b-404b-9cf7-e06e60cd352b" points="870.5 199.869 855.5 208.529 850.5 199.869 860.5 182.548 870.5 182.548 870.5 165.228 885.5 156.568 890.5 165.228 885.5 173.888 900.5 182.548 900.5 199.869 890.5 199.869 885.5 208.529 870.5 199.869"/>
  <polygon class="uuid-85e34568-3428-4967-bc7e-18d3ef6030e9" points="840.5 217.189 825.5 208.529 820.5 217.189 830.5 234.51 840.5 234.51 840.5 251.83 855.5 260.491 860.5 251.83 855.5 243.17 870.5 234.51 870.5 217.189 860.5 217.189 855.5 208.529 840.5 217.189"/>
  <polygon class="uuid-d669b00a-2c3b-404b-9cf7-e06e60cd352b" points="840.5 182.548 840.5 165.228 830.5 165.228 820.5 182.548 825.5 191.209 810.5 199.869 810.5 217.189 820.5 217.189 825.5 208.529 840.5 217.189 855.5 208.529 850.5 199.869 855.5 191.209 840.5 182.548"/>
  <polygon class="uuid-d669b00a-2c3b-404b-9cf7-e06e60cd352b" points="780.5 251.83 780.5 234.51 770.5 234.51 760.5 251.83 765.5 260.491 750.5 269.151 750.5 286.471 760.5 286.471 765.5 277.811 780.5 286.471 795.5 277.811 790.5 269.151 795.5 260.491 780.5 251.83"/>
  <polygon class="uuid-d669b00a-2c3b-404b-9cf7-e06e60cd352b" points="840.5 251.83 840.5 234.51 830.5 234.51 820.5 251.83 825.5 260.491 810.5 269.151 810.5 286.471 820.5 286.471 825.5 277.811 840.5 286.471 855.5 277.811 850.5 269.151 855.5 260.491 840.5 251.83"/>
  <polygon class="uuid-d669b00a-2c3b-404b-9cf7-e06e60cd352b" points="810.5 234.51 825.5 243.17 830.5 234.51 820.5 217.189 810.5 217.189 810.5 199.869 795.5 191.209 790.5 199.869 795.5 208.529 780.5 217.189 780.5 234.51 790.5 234.51 795.5 243.17 810.5 234.51"/>
  <polygon class="uuid-d669b00a-2c3b-404b-9cf7-e06e60cd352b" points="810.5 269.151 810.5 286.471 800.5 286.471 790.5 269.151 795.5 260.491 780.5 251.83 780.5 234.51 790.5 234.51 795.5 243.17 810.5 234.51 825.5 243.17 820.5 251.83 825.5 260.491 810.5 269.151"/>
  <polygon class="uuid-36f25a5e-242c-4a54-8d9f-bb8f493e18ec" points="810.5 303.792 795.5 312.452 800.5 321.112 820.5 321.112 825.5 312.452 840.5 321.112 855.5 312.452 850.5 303.792 840.5 303.792 840.5 286.471 825.5 277.811 820.5 286.471 810.5 286.471 810.5 303.792"/>
  <polygon class="uuid-d669b00a-2c3b-404b-9cf7-e06e60cd352b" points="780.5 286.471 765.5 277.811 760.5 286.471 770.5 303.792 780.5 303.792 780.5 321.112 795.5 329.773 800.5 321.112 795.5 312.452 810.5 303.792 810.5 286.471 800.5 286.471 795.5 277.811 780.5 286.471"/>
  <polygon class="uuid-36f25a5e-242c-4a54-8d9f-bb8f493e18ec" points="660.5 113.266 675.5 104.606 670.5 95.946 650.5 95.946 645.5 104.606 630.5 95.946 615.5 104.606 620.5 113.266 630.5 113.266 630.5 130.587 645.5 139.247 650.5 130.587 660.5 130.587 660.5 113.266"/>
  <polygon class="uuid-36f25a5e-242c-4a54-8d9f-bb8f493e18ec" points="690.5 165.228 705.5 156.568 700.5 147.907 680.5 147.907 675.5 156.568 660.5 147.907 645.5 156.568 650.5 165.228 660.5 165.228 660.5 182.548 675.5 191.209 680.5 182.548 690.5 182.548 690.5 165.228"/>
  <polygon class="uuid-85e34568-3428-4967-bc7e-18d3ef6030e9" points="690.5 130.587 690.5 147.907 700.5 147.907 710.5 130.587 705.5 121.927 720.5 113.266 720.5 95.946 710.5 95.946 705.5 104.606 690.5 95.946 675.5 104.606 680.5 113.266 675.5 121.927 690.5 130.587"/>
  <polygon class="uuid-85e34568-3428-4967-bc7e-18d3ef6030e9" points="660.5 147.907 645.5 156.568 640.5 147.907 650.5 130.587 660.5 130.587 660.5 113.266 675.5 104.606 680.5 113.266 675.5 121.927 690.5 130.587 690.5 147.907 680.5 147.907 675.5 156.568 660.5 147.907"/>
  <polygon class="uuid-36f25a5e-242c-4a54-8d9f-bb8f493e18ec" points="690.5 199.869 705.5 191.209 700.5 182.548 680.5 182.548 675.5 191.209 660.5 182.548 645.5 191.209 650.5 199.869 660.5 199.869 660.5 217.189 675.5 225.85 680.5 217.189 690.5 217.189 690.5 199.869"/>
  <polygon class="uuid-36f25a5e-242c-4a54-8d9f-bb8f493e18ec" points="720.5 251.83 735.5 243.17 730.5 234.51 710.5 234.51 705.5 243.17 690.5 234.51 675.5 243.17 680.5 251.83 690.5 251.83 690.5 269.151 705.5 277.811 710.5 269.151 720.5 269.151 720.5 251.83"/>
  <polygon class="uuid-85e34568-3428-4967-bc7e-18d3ef6030e9" points="720.5 217.189 720.5 234.51 730.5 234.51 740.5 217.189 735.5 208.529 750.5 199.869 750.5 182.548 740.5 182.548 735.5 191.209 720.5 182.548 705.5 191.209 710.5 199.869 705.5 208.529 720.5 217.189"/>
  <polygon class="uuid-85e34568-3428-4967-bc7e-18d3ef6030e9" points="690.5 234.51 675.5 243.17 670.5 234.51 680.5 217.189 690.5 217.189 690.5 199.869 705.5 191.209 710.5 199.869 705.5 208.529 720.5 217.189 720.5 234.51 710.5 234.51 705.5 243.17 690.5 234.51"/>
  <polygon class="uuid-d669b00a-2c3b-404b-9cf7-e06e60cd352b" points="780.5 147.907 780.5 165.228 790.5 165.228 800.5 147.907 795.5 139.247 810.5 130.587 810.5 113.266 800.5 113.266 795.5 121.927 780.5 113.266 765.5 121.927 770.5 130.587 765.5 139.247 780.5 147.907"/>
  <polygon class="uuid-d669b00a-2c3b-404b-9cf7-e06e60cd352b" points="720.5 147.907 720.5 165.228 730.5 165.228 740.5 147.907 735.5 139.247 750.5 130.587 750.5 113.266 740.5 113.266 735.5 121.927 720.5 113.266 705.5 121.927 710.5 130.587 705.5 139.247 720.5 147.907"/>
  <polygon class="uuid-d669b00a-2c3b-404b-9cf7-e06e60cd352b" points="750.5 165.228 735.5 156.568 730.5 165.228 740.5 182.548 750.5 182.548 750.5 199.869 765.5 208.529 770.5 199.869 765.5 191.209 780.5 182.548 780.5 165.228 770.5 165.228 765.5 156.568 750.5 165.228"/>
  <polygon class="uuid-d669b00a-2c3b-404b-9cf7-e06e60cd352b" points="750.5 130.587 750.5 113.266 760.5 113.266 770.5 130.587 765.5 139.247 780.5 147.907 780.5 165.228 770.5 165.228 765.5 156.568 750.5 165.228 735.5 156.568 740.5 147.907 735.5 139.247 750.5 130.587"/>
  <polygon class="uuid-2bf27d2c-8052-4c9b-bf80-9c210775bd26" points="720.5 182.548 735.5 191.209 740.5 182.548 730.5 165.228 720.5 165.228 720.5 147.907 705.5 139.247 700.5 147.907 705.5 156.568 690.5 165.228 690.5 182.548 700.5 182.548 705.5 191.209 720.5 182.548"/>
  <polygon class="uuid-36f25a5e-242c-4a54-8d9f-bb8f493e18ec" points="750.5 95.946 765.5 87.286 760.5 78.625 740.5 78.625 735.5 87.286 720.5 78.625 705.5 87.286 710.5 95.946 720.5 95.946 720.5 113.266 735.5 121.927 740.5 113.266 750.5 113.266 750.5 95.946"/>
  <polygon class="uuid-d669b00a-2c3b-404b-9cf7-e06e60cd352b" points="780.5 113.266 795.5 121.927 800.5 113.266 790.5 95.946 780.5 95.946 780.5 78.625 765.5 69.965 760.5 78.625 765.5 87.286 750.5 95.946 750.5 113.266 760.5 113.266 765.5 121.927 780.5 113.266"/>
  <polygon class="uuid-36f25a5e-242c-4a54-8d9f-bb8f493e18ec" points="660.5 78.625 675.5 69.965 670.5 61.305 650.5 61.305 645.5 69.965 630.5 61.305 615.5 69.965 620.5 78.625 630.5 78.625 630.5 95.946 645.5 104.606 650.5 95.946 660.5 95.946 660.5 78.625"/>
  <polygon class="uuid-d669b00a-2c3b-404b-9cf7-e06e60cd352b" points="690.5 95.946 705.5 104.606 710.5 95.946 700.5 78.625 690.5 78.625 690.5 61.305 675.5 52.645 670.5 61.305 675.5 69.965 660.5 78.625 660.5 95.946 670.5 95.946 675.5 104.606 690.5 95.946"/>
  <polygon class="uuid-2bf27d2c-8052-4c9b-bf80-9c210775bd26" points="630.5 165.228 615.5 156.568 610.5 165.228 620.5 182.548 630.5 182.548 630.5 199.869 645.5 208.529 650.5 199.869 645.5 191.209 660.5 182.548 660.5 165.228 650.5 165.228 645.5 156.568 630.5 165.228"/>
  <polygon class="uuid-85e34568-3428-4967-bc7e-18d3ef6030e9" points="630.5 130.587 630.5 113.266 620.5 113.266 610.5 130.587 615.5 139.247 600.5 147.907 600.5 165.228 610.5 165.228 615.5 156.568 630.5 165.228 645.5 156.568 640.5 147.907 645.5 139.247 630.5 130.587"/>
  <polygon class="uuid-2bf27d2c-8052-4c9b-bf80-9c210775bd26" points="660.5 251.83 645.5 243.17 640.5 251.83 650.5 269.151 660.5 269.151 660.5 286.471 675.5 295.132 680.5 286.471 675.5 277.811 690.5 269.151 690.5 251.83 680.5 251.83 675.5 243.17 660.5 251.83"/>
  <polygon class="uuid-85e34568-3428-4967-bc7e-18d3ef6030e9" points="660.5 217.189 660.5 199.869 650.5 199.869 640.5 217.189 645.5 225.85 630.5 234.51 630.5 251.83 640.5 251.83 645.5 243.17 660.5 251.83 675.5 243.17 670.5 234.51 675.5 225.85 660.5 217.189"/>
  <polygon class="uuid-85e34568-3428-4967-bc7e-18d3ef6030e9" points="750.5 234.51 750.5 217.189 740.5 217.189 730.5 234.51 735.5 243.17 720.5 251.83 720.5 269.151 730.5 269.151 735.5 260.491 750.5 269.151 765.5 260.491 760.5 251.83 765.5 243.17 750.5 234.51"/>
  <polygon class="uuid-688e41bb-a065-4eff-a8c7-7e10c4d2e85b" points="780.5 217.189 795.5 208.529 790.5 199.869 770.5 199.869 765.5 208.529 750.5 199.869 735.5 208.529 740.5 217.189 750.5 217.189 750.5 234.51 765.5 243.17 770.5 234.51 780.5 234.51 780.5 217.189"/>
  <polygon class="uuid-85e34568-3428-4967-bc7e-18d3ef6030e9" points="810.5 165.228 810.5 182.548 820.5 182.548 830.5 165.228 825.5 156.568 840.5 147.907 840.5 130.587 830.5 130.587 825.5 139.247 810.5 130.587 795.5 139.247 800.5 147.907 795.5 156.568 810.5 165.228"/>
  <polygon class="uuid-688e41bb-a065-4eff-a8c7-7e10c4d2e85b" points="780.5 182.548 765.5 191.209 770.5 199.869 790.5 199.869 795.5 191.209 810.5 199.869 825.5 191.209 820.5 182.548 810.5 182.548 810.5 165.228 795.5 156.568 790.5 165.228 780.5 165.228 780.5 182.548"/>
  <polygon class="uuid-85e34568-3428-4967-bc7e-18d3ef6030e9" points="780.5 43.984 780.5 61.305 790.5 61.305 800.5 43.984 795.5 35.324 810.5 26.664 810.5 9.343 800.5 9.343 795.5 18.004 780.5 9.343 765.5 18.004 770.5 26.664 765.5 35.324 780.5 43.984"/>
  <polygon class="uuid-85e34568-3428-4967-bc7e-18d3ef6030e9" points="720.5 78.625 735.5 87.286 740.5 78.625 730.5 61.305 720.5 61.305 720.5 43.984 705.5 35.324 700.5 43.984 705.5 52.645 690.5 61.305 690.5 78.625 700.5 78.625 705.5 87.286 720.5 78.625"/>
  <polygon class="uuid-36f25a5e-242c-4a54-8d9f-bb8f493e18ec" points="750.5 61.305 735.5 69.965 740.5 78.625 760.5 78.625 765.5 69.965 780.5 78.625 795.5 69.965 790.5 61.305 780.5 61.305 780.5 43.984 765.5 35.324 760.5 43.984 750.5 43.984 750.5 61.305"/>
  <polygon class="uuid-36f25a5e-242c-4a54-8d9f-bb8f493e18ec" points="720.5 43.984 705.5 35.324 710.5 26.664 730.5 26.664 735.5 35.324 750.5 26.664 765.5 35.324 760.5 43.984 750.5 43.984 750.5 61.305 735.5 69.965 730.5 61.305 720.5 61.305 720.5 43.984"/>
  <polygon class="uuid-2bf27d2c-8052-4c9b-bf80-9c210775bd26" points="690.5 26.664 690.5 9.343 680.5 9.343 670.5 26.664 675.5 35.324 660.5 43.984 660.5 61.305 670.5 61.305 675.5 52.645 690.5 61.305 705.5 52.645 700.5 43.984 705.5 35.324 690.5 26.664"/>
  <polygon class="uuid-36f25a5e-242c-4a54-8d9f-bb8f493e18ec" points="660.5 43.984 675.5 35.324 670.5 26.664 650.5 26.664 645.5 35.324 630.5 26.664 615.5 35.324 620.5 43.984 630.5 43.984 630.5 61.305 645.5 69.965 650.5 61.305 660.5 61.305 660.5 43.984"/>
  <polygon class="uuid-2bf27d2c-8052-4c9b-bf80-9c210775bd26" points="600.5 43.984 585.5 35.324 580.5 43.984 590.5 61.305 600.5 61.305 600.5 78.625 615.5 87.286 620.5 78.625 615.5 69.965 630.5 61.305 630.5 43.984 620.5 43.984 615.5 35.324 600.5 43.984"/>
  <polygon class="uuid-85e34568-3428-4967-bc7e-18d3ef6030e9" points="540.5 182.548 540.5 165.228 530.5 165.228 520.5 182.548 525.5 191.209 510.5 199.869 510.5 217.189 520.5 217.189 525.5 208.529 540.5 217.189 555.5 208.529 550.5 199.869 555.5 191.209 540.5 182.548"/>
  <polygon class="uuid-688e41bb-a065-4eff-a8c7-7e10c4d2e85b" points="570.5 165.228 585.5 156.568 580.5 147.907 560.5 147.907 555.5 156.568 540.5 147.907 525.5 156.568 530.5 165.228 540.5 165.228 540.5 182.548 555.5 191.209 560.5 182.548 570.5 182.548 570.5 165.228"/>
  <polygon class="uuid-d669b00a-2c3b-404b-9cf7-e06e60cd352b" points="570.5 199.869 570.5 182.548 560.5 182.548 550.5 199.869 555.5 208.529 540.5 217.189 540.5 234.51 550.5 234.51 555.5 225.85 570.5 234.51 585.5 225.85 580.5 217.189 585.5 208.529 570.5 199.869"/>
  <polygon class="uuid-d669b00a-2c3b-404b-9cf7-e06e60cd352b" points="630.5 199.869 630.5 182.548 620.5 182.548 610.5 199.869 615.5 208.529 600.5 217.189 600.5 234.51 610.5 234.51 615.5 225.85 630.5 234.51 645.5 225.85 640.5 217.189 645.5 208.529 630.5 199.869"/>
  <polygon class="uuid-d669b00a-2c3b-404b-9cf7-e06e60cd352b" points="600.5 182.548 615.5 191.209 620.5 182.548 610.5 165.228 600.5 165.228 600.5 147.907 585.5 139.247 580.5 147.907 585.5 156.568 570.5 165.228 570.5 182.548 580.5 182.548 585.5 191.209 600.5 182.548"/>
  <polygon class="uuid-d669b00a-2c3b-404b-9cf7-e06e60cd352b" points="600.5 217.189 600.5 234.51 590.5 234.51 580.5 217.189 585.5 208.529 570.5 199.869 570.5 182.548 580.5 182.548 585.5 191.209 600.5 182.548 615.5 191.209 610.5 199.869 615.5 208.529 600.5 217.189"/>
  <polygon class="uuid-36f25a5e-242c-4a54-8d9f-bb8f493e18ec" points="600.5 251.83 585.5 260.491 590.5 269.151 610.5 269.151 615.5 260.491 630.5 269.151 645.5 260.491 640.5 251.83 630.5 251.83 630.5 234.51 615.5 225.85 610.5 234.51 600.5 234.51 600.5 251.83"/>
  <polygon class="uuid-d669b00a-2c3b-404b-9cf7-e06e60cd352b" points="570.5 234.51 555.5 225.85 550.5 234.51 560.5 251.83 570.5 251.83 570.5 269.151 585.5 277.811 590.5 269.151 585.5 260.491 600.5 251.83 600.5 234.51 590.5 234.51 585.5 225.85 570.5 234.51"/>
  <polygon class="uuid-d669b00a-2c3b-404b-9cf7-e06e60cd352b" points="600.5 321.112 585.5 312.452 580.5 321.112 590.5 338.433 600.5 338.433 600.5 355.753 615.5 364.414 620.5 355.753 615.5 347.093 630.5 338.433 630.5 321.112 620.5 321.112 615.5 312.452 600.5 321.112"/>
  <polygon class="uuid-d669b00a-2c3b-404b-9cf7-e06e60cd352b" points="630.5 269.151 615.5 260.491 610.5 269.151 620.5 286.471 630.5 286.471 630.5 303.792 645.5 312.452 650.5 303.792 645.5 295.132 660.5 286.471 660.5 269.151 650.5 269.151 645.5 260.491 630.5 269.151"/>
  <polygon class="uuid-688e41bb-a065-4eff-a8c7-7e10c4d2e85b" points="600.5 286.471 615.5 277.811 610.5 269.151 590.5 269.151 585.5 277.811 570.5 269.151 555.5 277.811 560.5 286.471 570.5 286.471 570.5 303.792 585.5 312.452 590.5 303.792 600.5 303.792 600.5 286.471"/>
  <polygon class="uuid-688e41bb-a065-4eff-a8c7-7e10c4d2e85b" points="630.5 303.792 645.5 312.452 640.5 321.112 620.5 321.112 615.5 312.452 600.5 321.112 585.5 312.452 590.5 303.792 600.5 303.792 600.5 286.471 615.5 277.811 620.5 286.471 630.5 286.471 630.5 303.792"/>
  <polygon class="uuid-2bf27d2c-8052-4c9b-bf80-9c210775bd26" points="570.5 338.433 555.5 329.773 550.5 338.433 560.5 355.753 570.5 355.753 570.5 373.074 585.5 381.734 590.5 373.074 585.5 364.414 600.5 355.753 600.5 338.433 590.5 338.433 585.5 329.773 570.5 338.433"/>
  <polygon class="uuid-85e34568-3428-4967-bc7e-18d3ef6030e9" points="570.5 303.792 570.5 286.471 560.5 286.471 550.5 303.792 555.5 312.452 540.5 321.112 540.5 338.433 550.5 338.433 555.5 329.773 570.5 338.433 585.5 329.773 580.5 321.112 585.5 312.452 570.5 303.792"/>
  <polygon class="uuid-85e34568-3428-4967-bc7e-18d3ef6030e9" points="660.5 321.112 660.5 338.433 670.5 338.433 680.5 321.112 675.5 312.452 690.5 303.792 690.5 286.471 680.5 286.471 675.5 295.132 660.5 286.471 645.5 295.132 650.5 303.792 645.5 312.452 660.5 321.112"/>
  <polygon class="uuid-688e41bb-a065-4eff-a8c7-7e10c4d2e85b" points="630.5 338.433 615.5 347.093 620.5 355.753 640.5 355.753 645.5 347.093 660.5 355.753 675.5 347.093 670.5 338.433 660.5 338.433 660.5 321.112 645.5 312.452 640.5 321.112 630.5 321.112 630.5 338.433"/>
  <polygon class="uuid-209859b8-fc19-4f82-bdee-e0a9fb9ba67f" points="750.5 442.356 765.5 433.696 760.5 425.035 740.5 425.035 735.5 433.696 720.5 425.035 705.5 433.696 710.5 442.356 720.5 442.356 720.5 459.676 735.5 468.337 740.5 459.676 750.5 459.676 750.5 442.356"/>
  <polygon class="uuid-209859b8-fc19-4f82-bdee-e0a9fb9ba67f" points="780.5 494.318 795.5 485.657 790.5 476.997 770.5 476.997 765.5 485.657 750.5 476.997 735.5 485.657 740.5 494.318 750.5 494.318 750.5 511.638 765.5 520.298 770.5 511.638 780.5 511.638 780.5 494.318"/>
  <polygon class="uuid-9761906b-149a-47ca-9332-d996a0e75877" points="780.5 459.676 780.5 476.997 790.5 476.997 800.5 459.676 795.5 451.016 810.5 442.356 810.5 425.035 800.5 425.035 795.5 433.696 780.5 425.035 765.5 433.696 770.5 442.356 765.5 451.016 780.5 459.676"/>
  <polygon class="uuid-9761906b-149a-47ca-9332-d996a0e75877" points="750.5 476.997 735.5 485.657 730.5 476.997 740.5 459.676 750.5 459.676 750.5 442.356 765.5 433.696 770.5 442.356 765.5 451.016 780.5 459.676 780.5 476.997 770.5 476.997 765.5 485.657 750.5 476.997"/>
  <polygon class="uuid-209859b8-fc19-4f82-bdee-e0a9fb9ba67f" points="780.5 528.959 795.5 520.298 790.5 511.638 770.5 511.638 765.5 520.298 750.5 511.638 735.5 520.298 740.5 528.959 750.5 528.959 750.5 546.279 765.5 554.939 770.5 546.279 780.5 546.279 780.5 528.959"/>
  <polygon class="uuid-9761906b-149a-47ca-9332-d996a0e75877" points="810.5 546.279 810.5 563.6 820.5 563.6 830.5 546.279 825.5 537.619 840.5 528.959 840.5 511.638 830.5 511.638 825.5 520.298 810.5 511.638 795.5 520.298 800.5 528.959 795.5 537.619 810.5 546.279"/>
  <polygon class="uuid-ce80e62e-a9c0-4b0a-8690-6bc0e00e81e4" points="870.5 476.997 870.5 494.318 880.5 494.318 890.5 476.997 885.5 468.337 900.5 459.676 900.5 442.356 890.5 442.356 885.5 451.016 870.5 442.356 855.5 451.016 860.5 459.676 855.5 468.337 870.5 476.997"/>
  <polygon class="uuid-ce80e62e-a9c0-4b0a-8690-6bc0e00e81e4" points="810.5 476.997 810.5 494.318 820.5 494.318 830.5 476.997 825.5 468.337 840.5 459.676 840.5 442.356 830.5 442.356 825.5 451.016 810.5 442.356 795.5 451.016 800.5 459.676 795.5 468.337 810.5 476.997"/>
  <polygon class="uuid-ce80e62e-a9c0-4b0a-8690-6bc0e00e81e4" points="840.5 494.318 825.5 485.657 820.5 494.318 830.5 511.638 840.5 511.638 840.5 528.959 855.5 537.619 860.5 528.959 855.5 520.298 870.5 511.638 870.5 494.318 860.5 494.318 855.5 485.657 840.5 494.318"/>
  <polygon class="uuid-ce80e62e-a9c0-4b0a-8690-6bc0e00e81e4" points="840.5 459.676 840.5 442.356 850.5 442.356 860.5 459.676 855.5 468.337 870.5 476.997 870.5 494.318 860.5 494.318 855.5 485.657 840.5 494.318 825.5 485.657 830.5 476.997 825.5 468.337 840.5 459.676"/>
  <polygon class="uuid-e5cda36d-6cee-46be-b8fd-ddd5f0dd3736" points="810.5 511.638 825.5 520.298 830.5 511.638 820.5 494.318 810.5 494.318 810.5 476.997 795.5 468.337 790.5 476.997 795.5 485.657 780.5 494.318 780.5 511.638 790.5 511.638 795.5 520.298 810.5 511.638"/>
  <polygon class="uuid-209859b8-fc19-4f82-bdee-e0a9fb9ba67f" points="840.5 425.035 855.5 416.375 850.5 407.715 830.5 407.715 825.5 416.375 810.5 407.715 795.5 416.375 800.5 425.035 810.5 425.035 810.5 442.356 825.5 451.016 830.5 442.356 840.5 442.356 840.5 425.035"/>
  <polygon class="uuid-ce80e62e-a9c0-4b0a-8690-6bc0e00e81e4" points="870.5 442.356 885.5 451.016 890.5 442.356 880.5 425.035 870.5 425.035 870.5 407.715 855.5 399.055 850.5 407.715 855.5 416.375 840.5 425.035 840.5 442.356 850.5 442.356 855.5 451.016 870.5 442.356"/>
  <polygon class="uuid-209859b8-fc19-4f82-bdee-e0a9fb9ba67f" points="750.5 407.715 765.5 399.055 760.5 390.394 740.5 390.394 735.5 399.055 720.5 390.394 705.5 399.055 710.5 407.715 720.5 407.715 720.5 425.035 735.5 433.696 740.5 425.035 750.5 425.035 750.5 407.715"/>
  <polygon class="uuid-ce80e62e-a9c0-4b0a-8690-6bc0e00e81e4" points="780.5 425.035 795.5 433.696 800.5 425.035 790.5 407.715 780.5 407.715 780.5 390.394 765.5 381.734 760.5 390.394 765.5 399.055 750.5 407.715 750.5 425.035 760.5 425.035 765.5 433.696 780.5 425.035"/>
  <polygon class="uuid-e5cda36d-6cee-46be-b8fd-ddd5f0dd3736" points="720.5 494.318 705.5 485.657 700.5 494.318 710.5 511.638 720.5 511.638 720.5 528.959 735.5 537.619 740.5 528.959 735.5 520.298 750.5 511.638 750.5 494.318 740.5 494.318 735.5 485.657 720.5 494.318"/>
  <polygon class="uuid-9761906b-149a-47ca-9332-d996a0e75877" points="720.5 459.677 720.5 442.356 710.5 442.356 700.5 459.677 705.5 468.337 690.5 476.997 690.5 494.318 700.5 494.318 705.5 485.657 720.5 494.318 735.5 485.657 730.5 476.997 735.5 468.337 720.5 459.677"/>
  <polygon class="uuid-85e34568-3428-4967-bc7e-18d3ef6030e9" points="870.5 511.638 855.5 520.298 860.5 528.959 880.5 528.959 885.5 520.298 900.5 528.959 915.5 520.298 910.5 511.638 900.5 511.638 900.5 494.318 885.5 485.657 880.5 494.318 870.5 494.318 870.5 511.638"/>
  <polygon class="uuid-f5d5e043-383c-4140-bc1e-076779b3b341" points="900.5 390.394 900.5 373.074 890.5 373.074 880.5 390.394 885.5 399.055 870.5 407.715 870.5 425.035 880.5 425.035 885.5 416.375 900.5 425.035 915.5 416.375 910.5 407.715 915.5 399.055 900.5 390.394"/>
  <polygon class="uuid-ce80e62e-a9c0-4b0a-8690-6bc0e00e81e4" points="870.5 338.433 885.5 347.093 890.5 338.433 880.5 321.112 870.5 321.112 870.5 303.792 855.5 295.132 850.5 303.792 855.5 312.452 840.5 321.112 840.5 338.433 850.5 338.433 855.5 347.093 870.5 338.433"/>
  <polygon class="uuid-f5d5e043-383c-4140-bc1e-076779b3b341" points="870.5 373.074 870.5 390.394 880.5 390.394 890.5 373.074 885.5 364.414 900.5 355.753 900.5 338.433 890.5 338.433 885.5 347.093 870.5 338.433 855.5 347.093 860.5 355.753 855.5 364.414 870.5 373.074"/>
  <polygon class="uuid-f5d5e043-383c-4140-bc1e-076779b3b341" points="840.5 355.753 855.5 364.414 860.5 355.753 850.5 338.433 840.5 338.433 840.5 321.112 825.5 312.452 820.5 321.112 825.5 329.773 810.5 338.433 810.5 355.753 820.5 355.753 825.5 364.414 840.5 355.753"/>
  <polygon class="uuid-f5d5e043-383c-4140-bc1e-076779b3b341" points="810.5 407.715 825.5 416.375 830.5 407.715 820.5 390.394 810.5 390.394 810.5 373.074 795.5 364.414 790.5 373.074 795.5 381.734 780.5 390.394 780.5 407.715 790.5 407.715 795.5 416.375 810.5 407.715"/>
  <polygon class="uuid-f5d5e043-383c-4140-bc1e-076779b3b341" points="840.5 390.394 825.5 399.055 830.5 407.715 850.5 407.715 855.5 399.055 870.5 407.715 885.5 399.055 880.5 390.394 870.5 390.394 870.5 373.074 855.5 364.414 850.5 373.074 840.5 373.074 840.5 390.394"/>
  <polygon class="uuid-f5d5e043-383c-4140-bc1e-076779b3b341" points="810.5 373.074 795.5 364.414 800.5 355.753 820.5 355.753 825.5 364.414 840.5 355.753 855.5 364.414 850.5 373.074 840.5 373.074 840.5 390.394 825.5 399.055 820.5 390.394 810.5 390.394 810.5 373.074"/>
  <polygon class="uuid-ce80e62e-a9c0-4b0a-8690-6bc0e00e81e4" points="780.5 355.753 780.5 338.433 770.5 338.433 760.5 355.753 765.5 364.414 750.5 373.074 750.5 390.394 760.5 390.394 765.5 381.734 780.5 390.394 795.5 381.734 790.5 373.074 795.5 364.414 780.5 355.753"/>
  <polygon class="uuid-f5d5e043-383c-4140-bc1e-076779b3b341" points="810.5 338.433 825.5 329.773 820.5 321.112 800.5 321.112 795.5 329.773 780.5 321.112 765.5 329.773 770.5 338.433 780.5 338.433 780.5 355.753 795.5 364.414 800.5 355.753 810.5 355.753 810.5 338.433"/>
  <polygon class="uuid-f5d5e043-383c-4140-bc1e-076779b3b341" points="720.5 321.112 735.5 312.452 730.5 303.792 710.5 303.792 705.5 312.452 690.5 303.792 675.5 312.452 680.5 321.112 690.5 321.112 690.5 338.433 705.5 347.093 710.5 338.433 720.5 338.433 720.5 321.112"/>
  <polygon class="uuid-f5d5e043-383c-4140-bc1e-076779b3b341" points="750.5 373.074 765.5 364.414 760.5 355.753 740.5 355.753 735.5 364.414 720.5 355.753 705.5 364.414 710.5 373.074 720.5 373.074 720.5 390.394 735.5 399.055 740.5 390.394 750.5 390.394 750.5 373.074"/>
  <polygon class="uuid-f5d5e043-383c-4140-bc1e-076779b3b341" points="750.5 338.433 750.5 355.753 760.5 355.753 770.5 338.433 765.5 329.773 780.5 321.112 780.5 303.792 770.5 303.792 765.5 312.452 750.5 303.792 735.5 312.452 740.5 321.112 735.5 329.773 750.5 338.433"/>
  <polygon class="uuid-f5d5e043-383c-4140-bc1e-076779b3b341" points="720.5 355.753 705.5 364.414 700.5 355.753 710.5 338.433 720.5 338.433 720.5 321.112 735.5 312.452 740.5 321.112 735.5 329.773 750.5 338.433 750.5 355.753 740.5 355.753 735.5 364.414 720.5 355.753"/>
  <polygon class="uuid-209859b8-fc19-4f82-bdee-e0a9fb9ba67f" points="720.5 286.471 735.5 277.811 730.5 269.151 710.5 269.151 705.5 277.811 690.5 269.151 675.5 277.811 680.5 286.471 690.5 286.471 690.5 303.792 705.5 312.452 710.5 303.792 720.5 303.792 720.5 286.471"/>
  <polygon class="uuid-ce80e62e-a9c0-4b0a-8690-6bc0e00e81e4" points="750.5 303.792 765.5 312.452 770.5 303.792 760.5 286.471 750.5 286.471 750.5 269.151 735.5 260.491 730.5 269.151 735.5 277.811 720.5 286.471 720.5 303.792 730.5 303.792 735.5 312.452 750.5 303.792"/>
  <polygon class="uuid-ce80e62e-a9c0-4b0a-8690-6bc0e00e81e4" points="690.5 373.074 675.5 364.414 670.5 373.074 680.5 390.394 690.5 390.394 690.5 407.715 705.5 416.375 710.5 407.715 705.5 399.055 720.5 390.394 720.5 373.074 710.5 373.074 705.5 364.414 690.5 373.074"/>
  <polygon class="uuid-f5d5e043-383c-4140-bc1e-076779b3b341" points="690.5 338.433 690.5 321.112 680.5 321.112 670.5 338.433 675.5 347.093 660.5 355.753 660.5 373.074 670.5 373.074 675.5 364.414 690.5 373.074 705.5 364.414 700.5 355.753 705.5 347.093 690.5 338.433"/>
  <polygon class="uuid-9761906b-149a-47ca-9332-d996a0e75877" points="630.5 511.638 630.5 494.318 620.5 494.318 610.5 511.638 615.5 520.298 600.5 528.959 600.5 546.279 610.5 546.279 615.5 537.619 630.5 546.279 645.5 537.619 640.5 528.959 645.5 520.298 630.5 511.638"/>
  <polygon class="uuid-85e34568-3428-4967-bc7e-18d3ef6030e9" points="660.5 494.318 675.5 485.657 670.5 476.997 650.5 476.997 645.5 485.657 630.5 476.997 615.5 485.657 620.5 494.318 630.5 494.318 630.5 511.638 645.5 520.298 650.5 511.638 660.5 511.638 660.5 494.318"/>
  <polygon class="uuid-ce80e62e-a9c0-4b0a-8690-6bc0e00e81e4" points="660.5 528.959 660.5 511.638 650.5 511.638 640.5 528.959 645.5 537.619 630.5 546.279 630.5 563.6 640.5 563.6 645.5 554.939 660.5 563.6 675.5 554.939 670.5 546.279 675.5 537.619 660.5 528.959"/>
  <polygon class="uuid-ce80e62e-a9c0-4b0a-8690-6bc0e00e81e4" points="720.5 528.959 720.5 511.638 710.5 511.638 700.5 528.959 705.5 537.619 690.5 546.279 690.5 563.6 700.5 563.6 705.5 554.939 720.5 563.6 735.5 554.939 730.5 546.279 735.5 537.619 720.5 528.959"/>
  <polygon class="uuid-ce80e62e-a9c0-4b0a-8690-6bc0e00e81e4" points="690.5 511.638 705.5 520.298 710.5 511.638 700.5 494.318 690.5 494.318 690.5 476.997 675.5 468.337 670.5 476.997 675.5 485.657 660.5 494.318 660.5 511.638 670.5 511.638 675.5 520.298 690.5 511.638"/>
  <polygon class="uuid-ce80e62e-a9c0-4b0a-8690-6bc0e00e81e4" points="690.5 546.279 690.5 563.6 680.5 563.6 670.5 546.279 675.5 537.619 660.5 528.959 660.5 511.638 670.5 511.638 675.5 520.298 690.5 511.638 705.5 520.298 700.5 528.959 705.5 537.619 690.5 546.279"/>
  <polygon class="uuid-85e34568-3428-4967-bc7e-18d3ef6030e9" points="480.5 528.959 495.5 520.298 490.5 511.638 470.5 511.638 465.5 520.298 450.5 511.638 435.5 520.298 440.5 528.959 450.5 528.959 450.5 546.279 465.5 554.939 470.5 546.279 480.5 546.279 480.5 528.959"/>
  <polygon class="uuid-d669b00a-2c3b-404b-9cf7-e06e60cd352b" points="510.5 546.279 525.5 554.939 530.5 546.279 520.5 528.959 510.5 528.959 510.5 511.638 495.5 502.978 490.5 511.638 495.5 520.298 480.5 528.959 480.5 546.279 490.5 546.279 495.5 554.939 510.5 546.279"/>
</svg>